<?xml version="1.0" encoding="utf-8" standalone="no"?>
<!DOCTYPE svg PUBLIC "-//W3C//DTD SVG 1.1//EN"
  "http://www.w3.org/Graphics/SVG/1.1/DTD/svg11.dtd">
<svg xmlns:xlink="http://www.w3.org/1999/xlink" width="1440pt" height="432pt" viewBox="0 0 1440 432" xmlns="http://www.w3.org/2000/svg" version="1.1">
 <metadata>
  <rdf:RDF xmlns:dc="http://purl.org/dc/elements/1.1/" xmlns:cc="http://creativecommons.org/ns#" xmlns:rdf="http://www.w3.org/1999/02/22-rdf-syntax-ns#">
   <cc:Work>
    <dc:type rdf:resource="http://purl.org/dc/dcmitype/StillImage"/>
    <dc:date>2022-06-05T13:16:37.366882</dc:date>
    <dc:format>image/svg+xml</dc:format>
    <dc:creator>
     <cc:Agent>
      <dc:title>Matplotlib v3.5.1, https://matplotlib.org/</dc:title>
     </cc:Agent>
    </dc:creator>
   </cc:Work>
  </rdf:RDF>
 </metadata>
 <defs>
  <style type="text/css">*{stroke-linejoin: round; stroke-linecap: butt}</style>
 </defs>
 <g id="figure_1">
  <g id="patch_1">
   <path d="M 0 432 
L 1440 432 
L 1440 0 
L 0 0 
z
" style="fill: #ffffff"/>
  </g>
  <g id="axes_1">
   <g id="patch_2">
    <path d="M 180 378 
L 856.363636 378 
L 856.363636 51.84 
L 180 51.84 
z
" style="fill: #ffffff"/>
   </g>
   <g id="matplotlib.axis_1">
    <g id="xtick_1">
     <g id="text_1">
      <!-- United States -->
      <g style="fill: #262626" transform="translate(200.011278 457.0375)rotate(-90)scale(0.12 -0.12)">
       <defs>
        <path id="ArialMT-55" d="M 3500 4581 
L 4106 4581 
L 4106 1934 
Q 4106 1244 3950 837 
Q 3794 431 3386 176 
Q 2978 -78 2316 -78 
Q 1672 -78 1262 144 
Q 853 366 678 786 
Q 503 1206 503 1934 
L 503 4581 
L 1109 4581 
L 1109 1938 
Q 1109 1341 1220 1058 
Q 1331 775 1601 622 
Q 1872 469 2263 469 
Q 2931 469 3215 772 
Q 3500 1075 3500 1938 
L 3500 4581 
z
" transform="scale(0.015625)"/>
        <path id="ArialMT-6e" d="M 422 0 
L 422 3319 
L 928 3319 
L 928 2847 
Q 1294 3394 1984 3394 
Q 2284 3394 2536 3286 
Q 2788 3178 2913 3003 
Q 3038 2828 3088 2588 
Q 3119 2431 3119 2041 
L 3119 0 
L 2556 0 
L 2556 2019 
Q 2556 2363 2490 2533 
Q 2425 2703 2258 2804 
Q 2091 2906 1866 2906 
Q 1506 2906 1245 2678 
Q 984 2450 984 1813 
L 984 0 
L 422 0 
z
" transform="scale(0.015625)"/>
        <path id="ArialMT-69" d="M 425 3934 
L 425 4581 
L 988 4581 
L 988 3934 
L 425 3934 
z
M 425 0 
L 425 3319 
L 988 3319 
L 988 0 
L 425 0 
z
" transform="scale(0.015625)"/>
        <path id="ArialMT-74" d="M 1650 503 
L 1731 6 
Q 1494 -44 1306 -44 
Q 1000 -44 831 53 
Q 663 150 594 308 
Q 525 466 525 972 
L 525 2881 
L 113 2881 
L 113 3319 
L 525 3319 
L 525 4141 
L 1084 4478 
L 1084 3319 
L 1650 3319 
L 1650 2881 
L 1084 2881 
L 1084 941 
Q 1084 700 1114 631 
Q 1144 563 1211 522 
Q 1278 481 1403 481 
Q 1497 481 1650 503 
z
" transform="scale(0.015625)"/>
        <path id="ArialMT-65" d="M 2694 1069 
L 3275 997 
Q 3138 488 2766 206 
Q 2394 -75 1816 -75 
Q 1088 -75 661 373 
Q 234 822 234 1631 
Q 234 2469 665 2931 
Q 1097 3394 1784 3394 
Q 2450 3394 2872 2941 
Q 3294 2488 3294 1666 
Q 3294 1616 3291 1516 
L 816 1516 
Q 847 969 1125 678 
Q 1403 388 1819 388 
Q 2128 388 2347 550 
Q 2566 713 2694 1069 
z
M 847 1978 
L 2700 1978 
Q 2663 2397 2488 2606 
Q 2219 2931 1791 2931 
Q 1403 2931 1139 2672 
Q 875 2413 847 1978 
z
" transform="scale(0.015625)"/>
        <path id="ArialMT-64" d="M 2575 0 
L 2575 419 
Q 2259 -75 1647 -75 
Q 1250 -75 917 144 
Q 584 363 401 755 
Q 219 1147 219 1656 
Q 219 2153 384 2558 
Q 550 2963 881 3178 
Q 1213 3394 1622 3394 
Q 1922 3394 2156 3267 
Q 2391 3141 2538 2938 
L 2538 4581 
L 3097 4581 
L 3097 0 
L 2575 0 
z
M 797 1656 
Q 797 1019 1065 703 
Q 1334 388 1700 388 
Q 2069 388 2326 689 
Q 2584 991 2584 1609 
Q 2584 2291 2321 2609 
Q 2059 2928 1675 2928 
Q 1300 2928 1048 2622 
Q 797 2316 797 1656 
z
" transform="scale(0.015625)"/>
        <path id="ArialMT-20" transform="scale(0.015625)"/>
        <path id="ArialMT-53" d="M 288 1472 
L 859 1522 
Q 900 1178 1048 958 
Q 1197 738 1509 602 
Q 1822 466 2213 466 
Q 2559 466 2825 569 
Q 3091 672 3220 851 
Q 3350 1031 3350 1244 
Q 3350 1459 3225 1620 
Q 3100 1781 2813 1891 
Q 2628 1963 1997 2114 
Q 1366 2266 1113 2400 
Q 784 2572 623 2826 
Q 463 3081 463 3397 
Q 463 3744 659 4045 
Q 856 4347 1234 4503 
Q 1613 4659 2075 4659 
Q 2584 4659 2973 4495 
Q 3363 4331 3572 4012 
Q 3781 3694 3797 3291 
L 3216 3247 
Q 3169 3681 2898 3903 
Q 2628 4125 2100 4125 
Q 1550 4125 1298 3923 
Q 1047 3722 1047 3438 
Q 1047 3191 1225 3031 
Q 1400 2872 2139 2705 
Q 2878 2538 3153 2413 
Q 3553 2228 3743 1945 
Q 3934 1663 3934 1294 
Q 3934 928 3725 604 
Q 3516 281 3123 101 
Q 2731 -78 2241 -78 
Q 1619 -78 1198 103 
Q 778 284 539 648 
Q 300 1013 288 1472 
z
" transform="scale(0.015625)"/>
        <path id="ArialMT-61" d="M 2588 409 
Q 2275 144 1986 34 
Q 1697 -75 1366 -75 
Q 819 -75 525 192 
Q 231 459 231 875 
Q 231 1119 342 1320 
Q 453 1522 633 1644 
Q 813 1766 1038 1828 
Q 1203 1872 1538 1913 
Q 2219 1994 2541 2106 
Q 2544 2222 2544 2253 
Q 2544 2597 2384 2738 
Q 2169 2928 1744 2928 
Q 1347 2928 1158 2789 
Q 969 2650 878 2297 
L 328 2372 
Q 403 2725 575 2942 
Q 747 3159 1072 3276 
Q 1397 3394 1825 3394 
Q 2250 3394 2515 3294 
Q 2781 3194 2906 3042 
Q 3031 2891 3081 2659 
Q 3109 2516 3109 2141 
L 3109 1391 
Q 3109 606 3145 398 
Q 3181 191 3288 0 
L 2700 0 
Q 2613 175 2588 409 
z
M 2541 1666 
Q 2234 1541 1622 1453 
Q 1275 1403 1131 1340 
Q 988 1278 909 1158 
Q 831 1038 831 891 
Q 831 666 1001 516 
Q 1172 366 1500 366 
Q 1825 366 2078 508 
Q 2331 650 2450 897 
Q 2541 1088 2541 1459 
L 2541 1666 
z
" transform="scale(0.015625)"/>
        <path id="ArialMT-73" d="M 197 991 
L 753 1078 
Q 800 744 1014 566 
Q 1228 388 1613 388 
Q 2000 388 2187 545 
Q 2375 703 2375 916 
Q 2375 1106 2209 1216 
Q 2094 1291 1634 1406 
Q 1016 1563 777 1677 
Q 538 1791 414 1992 
Q 291 2194 291 2438 
Q 291 2659 392 2848 
Q 494 3038 669 3163 
Q 800 3259 1026 3326 
Q 1253 3394 1513 3394 
Q 1903 3394 2198 3281 
Q 2494 3169 2634 2976 
Q 2775 2784 2828 2463 
L 2278 2388 
Q 2241 2644 2061 2787 
Q 1881 2931 1553 2931 
Q 1166 2931 1000 2803 
Q 834 2675 834 2503 
Q 834 2394 903 2306 
Q 972 2216 1119 2156 
Q 1203 2125 1616 2013 
Q 2213 1853 2448 1751 
Q 2684 1650 2818 1456 
Q 2953 1263 2953 975 
Q 2953 694 2789 445 
Q 2625 197 2315 61 
Q 2006 -75 1616 -75 
Q 969 -75 630 194 
Q 291 463 197 991 
z
" transform="scale(0.015625)"/>
       </defs>
       <use xlink:href="#ArialMT-55"/>
       <use xlink:href="#ArialMT-6e" x="72.216797"/>
       <use xlink:href="#ArialMT-69" x="127.832031"/>
       <use xlink:href="#ArialMT-74" x="150.048828"/>
       <use xlink:href="#ArialMT-65" x="177.832031"/>
       <use xlink:href="#ArialMT-64" x="233.447266"/>
       <use xlink:href="#ArialMT-20" x="289.0625"/>
       <use xlink:href="#ArialMT-53" x="316.845703"/>
       <use xlink:href="#ArialMT-74" x="383.544922"/>
       <use xlink:href="#ArialMT-61" x="411.328125"/>
       <use xlink:href="#ArialMT-74" x="466.943359"/>
       <use xlink:href="#ArialMT-65" x="494.726562"/>
       <use xlink:href="#ArialMT-73" x="550.341797"/>
      </g>
     </g>
    </g>
    <g id="xtick_2">
     <g id="text_2">
      <!-- India -->
      <g style="fill: #262626" transform="translate(233.82946 411.019375)rotate(-90)scale(0.12 -0.12)">
       <defs>
        <path id="ArialMT-49" d="M 597 0 
L 597 4581 
L 1203 4581 
L 1203 0 
L 597 0 
z
" transform="scale(0.015625)"/>
       </defs>
       <use xlink:href="#ArialMT-49"/>
       <use xlink:href="#ArialMT-6e" x="27.783203"/>
       <use xlink:href="#ArialMT-64" x="83.398438"/>
       <use xlink:href="#ArialMT-69" x="139.013672"/>
       <use xlink:href="#ArialMT-61" x="161.230469"/>
      </g>
     </g>
    </g>
    <g id="xtick_3">
     <g id="text_3">
      <!-- United Kingdom -->
      <g style="fill: #262626" transform="translate(267.57733 470.378125)rotate(-90)scale(0.12 -0.12)">
       <defs>
        <path id="ArialMT-4b" d="M 469 0 
L 469 4581 
L 1075 4581 
L 1075 2309 
L 3350 4581 
L 4172 4581 
L 2250 2725 
L 4256 0 
L 3456 0 
L 1825 2319 
L 1075 1588 
L 1075 0 
L 469 0 
z
" transform="scale(0.015625)"/>
        <path id="ArialMT-67" d="M 319 -275 
L 866 -356 
Q 900 -609 1056 -725 
Q 1266 -881 1628 -881 
Q 2019 -881 2231 -725 
Q 2444 -569 2519 -288 
Q 2563 -116 2559 434 
Q 2191 0 1641 0 
Q 956 0 581 494 
Q 206 988 206 1678 
Q 206 2153 378 2554 
Q 550 2956 876 3175 
Q 1203 3394 1644 3394 
Q 2231 3394 2613 2919 
L 2613 3319 
L 3131 3319 
L 3131 450 
Q 3131 -325 2973 -648 
Q 2816 -972 2473 -1159 
Q 2131 -1347 1631 -1347 
Q 1038 -1347 672 -1080 
Q 306 -813 319 -275 
z
M 784 1719 
Q 784 1066 1043 766 
Q 1303 466 1694 466 
Q 2081 466 2343 764 
Q 2606 1063 2606 1700 
Q 2606 2309 2336 2618 
Q 2066 2928 1684 2928 
Q 1309 2928 1046 2623 
Q 784 2319 784 1719 
z
" transform="scale(0.015625)"/>
        <path id="ArialMT-6f" d="M 213 1659 
Q 213 2581 725 3025 
Q 1153 3394 1769 3394 
Q 2453 3394 2887 2945 
Q 3322 2497 3322 1706 
Q 3322 1066 3130 698 
Q 2938 331 2570 128 
Q 2203 -75 1769 -75 
Q 1072 -75 642 372 
Q 213 819 213 1659 
z
M 791 1659 
Q 791 1022 1069 705 
Q 1347 388 1769 388 
Q 2188 388 2466 706 
Q 2744 1025 2744 1678 
Q 2744 2294 2464 2611 
Q 2184 2928 1769 2928 
Q 1347 2928 1069 2612 
Q 791 2297 791 1659 
z
" transform="scale(0.015625)"/>
        <path id="ArialMT-6d" d="M 422 0 
L 422 3319 
L 925 3319 
L 925 2853 
Q 1081 3097 1340 3245 
Q 1600 3394 1931 3394 
Q 2300 3394 2536 3241 
Q 2772 3088 2869 2813 
Q 3263 3394 3894 3394 
Q 4388 3394 4653 3120 
Q 4919 2847 4919 2278 
L 4919 0 
L 4359 0 
L 4359 2091 
Q 4359 2428 4304 2576 
Q 4250 2725 4106 2815 
Q 3963 2906 3769 2906 
Q 3419 2906 3187 2673 
Q 2956 2441 2956 1928 
L 2956 0 
L 2394 0 
L 2394 2156 
Q 2394 2531 2256 2718 
Q 2119 2906 1806 2906 
Q 1569 2906 1367 2781 
Q 1166 2656 1075 2415 
Q 984 2175 984 1722 
L 984 0 
L 422 0 
z
" transform="scale(0.015625)"/>
       </defs>
       <use xlink:href="#ArialMT-55"/>
       <use xlink:href="#ArialMT-6e" x="72.216797"/>
       <use xlink:href="#ArialMT-69" x="127.832031"/>
       <use xlink:href="#ArialMT-74" x="150.048828"/>
       <use xlink:href="#ArialMT-65" x="177.832031"/>
       <use xlink:href="#ArialMT-64" x="233.447266"/>
       <use xlink:href="#ArialMT-20" x="289.0625"/>
       <use xlink:href="#ArialMT-4b" x="316.845703"/>
       <use xlink:href="#ArialMT-69" x="383.544922"/>
       <use xlink:href="#ArialMT-6e" x="405.761719"/>
       <use xlink:href="#ArialMT-67" x="461.376953"/>
       <use xlink:href="#ArialMT-64" x="516.992188"/>
       <use xlink:href="#ArialMT-6f" x="572.607422"/>
       <use xlink:href="#ArialMT-6d" x="628.222656"/>
      </g>
     </g>
    </g>
    <g id="xtick_4">
     <g id="text_4">
      <!-- Canada -->
      <g style="fill: #262626" transform="translate(301.465824 427.031875)rotate(-90)scale(0.12 -0.12)">
       <defs>
        <path id="ArialMT-43" d="M 3763 1606 
L 4369 1453 
Q 4178 706 3683 314 
Q 3188 -78 2472 -78 
Q 1731 -78 1267 223 
Q 803 525 561 1097 
Q 319 1669 319 2325 
Q 319 3041 592 3573 
Q 866 4106 1370 4382 
Q 1875 4659 2481 4659 
Q 3169 4659 3637 4309 
Q 4106 3959 4291 3325 
L 3694 3184 
Q 3534 3684 3231 3912 
Q 2928 4141 2469 4141 
Q 1941 4141 1586 3887 
Q 1231 3634 1087 3207 
Q 944 2781 944 2328 
Q 944 1744 1114 1308 
Q 1284 872 1643 656 
Q 2003 441 2422 441 
Q 2931 441 3284 734 
Q 3638 1028 3763 1606 
z
" transform="scale(0.015625)"/>
       </defs>
       <use xlink:href="#ArialMT-43"/>
       <use xlink:href="#ArialMT-61" x="72.216797"/>
       <use xlink:href="#ArialMT-6e" x="127.832031"/>
       <use xlink:href="#ArialMT-61" x="183.447266"/>
       <use xlink:href="#ArialMT-64" x="239.0625"/>
       <use xlink:href="#ArialMT-61" x="294.677734"/>
      </g>
     </g>
    </g>
    <g id="xtick_5">
     <g id="text_5">
      <!-- France -->
      <g style="fill: #262626" transform="translate(335.284006 422.344375)rotate(-90)scale(0.12 -0.12)">
       <defs>
        <path id="ArialMT-46" d="M 525 0 
L 525 4581 
L 3616 4581 
L 3616 4041 
L 1131 4041 
L 1131 2622 
L 3281 2622 
L 3281 2081 
L 1131 2081 
L 1131 0 
L 525 0 
z
" transform="scale(0.015625)"/>
        <path id="ArialMT-72" d="M 416 0 
L 416 3319 
L 922 3319 
L 922 2816 
Q 1116 3169 1280 3281 
Q 1444 3394 1641 3394 
Q 1925 3394 2219 3213 
L 2025 2691 
Q 1819 2813 1613 2813 
Q 1428 2813 1281 2702 
Q 1134 2591 1072 2394 
Q 978 2094 978 1738 
L 978 0 
L 416 0 
z
" transform="scale(0.015625)"/>
        <path id="ArialMT-63" d="M 2588 1216 
L 3141 1144 
Q 3050 572 2676 248 
Q 2303 -75 1759 -75 
Q 1078 -75 664 370 
Q 250 816 250 1647 
Q 250 2184 428 2587 
Q 606 2991 970 3192 
Q 1334 3394 1763 3394 
Q 2303 3394 2647 3120 
Q 2991 2847 3088 2344 
L 2541 2259 
Q 2463 2594 2264 2762 
Q 2066 2931 1784 2931 
Q 1359 2931 1093 2626 
Q 828 2322 828 1663 
Q 828 994 1084 691 
Q 1341 388 1753 388 
Q 2084 388 2306 591 
Q 2528 794 2588 1216 
z
" transform="scale(0.015625)"/>
       </defs>
       <use xlink:href="#ArialMT-46"/>
       <use xlink:href="#ArialMT-72" x="61.083984"/>
       <use xlink:href="#ArialMT-61" x="94.384766"/>
       <use xlink:href="#ArialMT-6e" x="150"/>
       <use xlink:href="#ArialMT-63" x="205.615234"/>
       <use xlink:href="#ArialMT-65" x="255.615234"/>
      </g>
     </g>
    </g>
    <g id="xtick_6">
     <g id="text_6">
      <!-- Japan -->
      <g style="fill: #262626" transform="translate(369.102188 417.6925)rotate(-90)scale(0.12 -0.12)">
       <defs>
        <path id="ArialMT-4a" d="M 184 1300 
L 731 1375 
Q 753 850 928 656 
Q 1103 463 1413 463 
Q 1641 463 1806 567 
Q 1972 672 2034 851 
Q 2097 1031 2097 1425 
L 2097 4581 
L 2703 4581 
L 2703 1459 
Q 2703 884 2564 568 
Q 2425 253 2123 87 
Q 1822 -78 1416 -78 
Q 813 -78 492 269 
Q 172 616 184 1300 
z
" transform="scale(0.015625)"/>
        <path id="ArialMT-70" d="M 422 -1272 
L 422 3319 
L 934 3319 
L 934 2888 
Q 1116 3141 1344 3267 
Q 1572 3394 1897 3394 
Q 2322 3394 2647 3175 
Q 2972 2956 3137 2557 
Q 3303 2159 3303 1684 
Q 3303 1175 3120 767 
Q 2938 359 2589 142 
Q 2241 -75 1856 -75 
Q 1575 -75 1351 44 
Q 1128 163 984 344 
L 984 -1272 
L 422 -1272 
z
M 931 1641 
Q 931 1000 1190 694 
Q 1450 388 1819 388 
Q 2194 388 2461 705 
Q 2728 1022 2728 1688 
Q 2728 2322 2467 2637 
Q 2206 2953 1844 2953 
Q 1484 2953 1207 2617 
Q 931 2281 931 1641 
z
" transform="scale(0.015625)"/>
       </defs>
       <use xlink:href="#ArialMT-4a"/>
       <use xlink:href="#ArialMT-61" x="50"/>
       <use xlink:href="#ArialMT-70" x="105.615234"/>
       <use xlink:href="#ArialMT-61" x="161.230469"/>
       <use xlink:href="#ArialMT-6e" x="216.845703"/>
      </g>
     </g>
    </g>
    <g id="xtick_7">
     <g id="text_7">
      <!-- Spain -->
      <g style="fill: #262626" transform="translate(402.993494 415.69)rotate(-90)scale(0.12 -0.12)">
       <use xlink:href="#ArialMT-53"/>
       <use xlink:href="#ArialMT-70" x="66.699219"/>
       <use xlink:href="#ArialMT-61" x="122.314453"/>
       <use xlink:href="#ArialMT-69" x="177.929688"/>
       <use xlink:href="#ArialMT-6e" x="200.146484"/>
      </g>
     </g>
    </g>
    <g id="xtick_8">
     <g id="text_8">
      <!-- South Korea -->
      <g style="fill: #262626" transform="translate(436.738551 451.710625)rotate(-90)scale(0.12 -0.12)">
       <defs>
        <path id="ArialMT-75" d="M 2597 0 
L 2597 488 
Q 2209 -75 1544 -75 
Q 1250 -75 995 37 
Q 741 150 617 320 
Q 494 491 444 738 
Q 409 903 409 1263 
L 409 3319 
L 972 3319 
L 972 1478 
Q 972 1038 1006 884 
Q 1059 663 1231 536 
Q 1403 409 1656 409 
Q 1909 409 2131 539 
Q 2353 669 2445 892 
Q 2538 1116 2538 1541 
L 2538 3319 
L 3100 3319 
L 3100 0 
L 2597 0 
z
" transform="scale(0.015625)"/>
        <path id="ArialMT-68" d="M 422 0 
L 422 4581 
L 984 4581 
L 984 2938 
Q 1378 3394 1978 3394 
Q 2347 3394 2619 3248 
Q 2891 3103 3008 2847 
Q 3125 2591 3125 2103 
L 3125 0 
L 2563 0 
L 2563 2103 
Q 2563 2525 2380 2717 
Q 2197 2909 1863 2909 
Q 1613 2909 1392 2779 
Q 1172 2650 1078 2428 
Q 984 2206 984 1816 
L 984 0 
L 422 0 
z
" transform="scale(0.015625)"/>
       </defs>
       <use xlink:href="#ArialMT-53"/>
       <use xlink:href="#ArialMT-6f" x="66.699219"/>
       <use xlink:href="#ArialMT-75" x="122.314453"/>
       <use xlink:href="#ArialMT-74" x="177.929688"/>
       <use xlink:href="#ArialMT-68" x="205.712891"/>
       <use xlink:href="#ArialMT-20" x="261.328125"/>
       <use xlink:href="#ArialMT-4b" x="289.111328"/>
       <use xlink:href="#ArialMT-6f" x="355.810547"/>
       <use xlink:href="#ArialMT-72" x="411.425781"/>
       <use xlink:href="#ArialMT-65" x="444.726562"/>
       <use xlink:href="#ArialMT-61" x="500.341797"/>
      </g>
     </g>
    </g>
    <g id="xtick_9">
     <g id="text_9">
      <!-- Germany -->
      <g style="fill: #262626" transform="translate(470.559545 434.344375)rotate(-90)scale(0.12 -0.12)">
       <defs>
        <path id="ArialMT-47" d="M 2638 1797 
L 2638 2334 
L 4578 2338 
L 4578 638 
Q 4131 281 3656 101 
Q 3181 -78 2681 -78 
Q 2006 -78 1454 211 
Q 903 500 622 1047 
Q 341 1594 341 2269 
Q 341 2938 620 3517 
Q 900 4097 1425 4378 
Q 1950 4659 2634 4659 
Q 3131 4659 3532 4498 
Q 3934 4338 4162 4050 
Q 4391 3763 4509 3300 
L 3963 3150 
Q 3859 3500 3706 3700 
Q 3553 3900 3268 4020 
Q 2984 4141 2638 4141 
Q 2222 4141 1919 4014 
Q 1616 3888 1430 3681 
Q 1244 3475 1141 3228 
Q 966 2803 966 2306 
Q 966 1694 1177 1281 
Q 1388 869 1791 669 
Q 2194 469 2647 469 
Q 3041 469 3416 620 
Q 3791 772 3984 944 
L 3984 1797 
L 2638 1797 
z
" transform="scale(0.015625)"/>
        <path id="ArialMT-79" d="M 397 -1278 
L 334 -750 
Q 519 -800 656 -800 
Q 844 -800 956 -737 
Q 1069 -675 1141 -563 
Q 1194 -478 1313 -144 
Q 1328 -97 1363 -6 
L 103 3319 
L 709 3319 
L 1400 1397 
Q 1534 1031 1641 628 
Q 1738 1016 1872 1384 
L 2581 3319 
L 3144 3319 
L 1881 -56 
Q 1678 -603 1566 -809 
Q 1416 -1088 1222 -1217 
Q 1028 -1347 759 -1347 
Q 597 -1347 397 -1278 
z
" transform="scale(0.015625)"/>
       </defs>
       <use xlink:href="#ArialMT-47"/>
       <use xlink:href="#ArialMT-65" x="77.783203"/>
       <use xlink:href="#ArialMT-72" x="133.398438"/>
       <use xlink:href="#ArialMT-6d" x="166.699219"/>
       <use xlink:href="#ArialMT-61" x="250"/>
       <use xlink:href="#ArialMT-6e" x="305.615234"/>
       <use xlink:href="#ArialMT-79" x="361.230469"/>
      </g>
     </g>
    </g>
    <g id="xtick_10">
     <g id="text_10">
      <!-- Mexico -->
      <g style="fill: #262626" transform="translate(504.374915 423.008125)rotate(-90)scale(0.12 -0.12)">
       <defs>
        <path id="ArialMT-4d" d="M 475 0 
L 475 4581 
L 1388 4581 
L 2472 1338 
Q 2622 884 2691 659 
Q 2769 909 2934 1394 
L 4031 4581 
L 4847 4581 
L 4847 0 
L 4263 0 
L 4263 3834 
L 2931 0 
L 2384 0 
L 1059 3900 
L 1059 0 
L 475 0 
z
" transform="scale(0.015625)"/>
        <path id="ArialMT-78" d="M 47 0 
L 1259 1725 
L 138 3319 
L 841 3319 
L 1350 2541 
Q 1494 2319 1581 2169 
Q 1719 2375 1834 2534 
L 2394 3319 
L 3066 3319 
L 1919 1756 
L 3153 0 
L 2463 0 
L 1781 1031 
L 1600 1309 
L 728 0 
L 47 0 
z
" transform="scale(0.015625)"/>
       </defs>
       <use xlink:href="#ArialMT-4d"/>
       <use xlink:href="#ArialMT-65" x="83.300781"/>
       <use xlink:href="#ArialMT-78" x="138.916016"/>
       <use xlink:href="#ArialMT-69" x="188.916016"/>
       <use xlink:href="#ArialMT-63" x="211.132812"/>
       <use xlink:href="#ArialMT-6f" x="261.132812"/>
      </g>
     </g>
    </g>
    <g id="xtick_11">
     <g id="text_11">
      <!-- China -->
      <g style="fill: #262626" transform="translate(538.193097 416.351875)rotate(-90)scale(0.12 -0.12)">
       <use xlink:href="#ArialMT-43"/>
       <use xlink:href="#ArialMT-68" x="72.216797"/>
       <use xlink:href="#ArialMT-69" x="127.832031"/>
       <use xlink:href="#ArialMT-6e" x="150.048828"/>
       <use xlink:href="#ArialMT-61" x="205.664062"/>
      </g>
     </g>
    </g>
    <g id="xtick_12">
     <g id="text_12">
      <!-- Australia -->
      <g style="fill: #262626" transform="translate(572.011278 431.685625)rotate(-90)scale(0.12 -0.12)">
       <defs>
        <path id="ArialMT-41" d="M -9 0 
L 1750 4581 
L 2403 4581 
L 4278 0 
L 3588 0 
L 3053 1388 
L 1138 1388 
L 634 0 
L -9 0 
z
M 1313 1881 
L 2866 1881 
L 2388 3150 
Q 2169 3728 2063 4100 
Q 1975 3659 1816 3225 
L 1313 1881 
z
" transform="scale(0.015625)"/>
        <path id="ArialMT-6c" d="M 409 0 
L 409 4581 
L 972 4581 
L 972 0 
L 409 0 
z
" transform="scale(0.015625)"/>
       </defs>
       <use xlink:href="#ArialMT-41"/>
       <use xlink:href="#ArialMT-75" x="66.699219"/>
       <use xlink:href="#ArialMT-73" x="122.314453"/>
       <use xlink:href="#ArialMT-74" x="172.314453"/>
       <use xlink:href="#ArialMT-72" x="200.097656"/>
       <use xlink:href="#ArialMT-61" x="233.398438"/>
       <use xlink:href="#ArialMT-6c" x="289.013672"/>
       <use xlink:href="#ArialMT-69" x="311.230469"/>
       <use xlink:href="#ArialMT-61" x="333.447266"/>
      </g>
     </g>
    </g>
    <g id="xtick_13">
     <g id="text_13">
      <!-- Egypt -->
      <g style="fill: #262626" transform="translate(605.759148 415.684375)rotate(-90)scale(0.12 -0.12)">
       <defs>
        <path id="ArialMT-45" d="M 506 0 
L 506 4581 
L 3819 4581 
L 3819 4041 
L 1113 4041 
L 1113 2638 
L 3647 2638 
L 3647 2100 
L 1113 2100 
L 1113 541 
L 3925 541 
L 3925 0 
L 506 0 
z
" transform="scale(0.015625)"/>
       </defs>
       <use xlink:href="#ArialMT-45"/>
       <use xlink:href="#ArialMT-67" x="66.699219"/>
       <use xlink:href="#ArialMT-79" x="122.314453"/>
       <use xlink:href="#ArialMT-70" x="172.314453"/>
       <use xlink:href="#ArialMT-74" x="227.929688"/>
      </g>
     </g>
    </g>
    <g id="xtick_14">
     <g id="text_14">
      <!-- Turkey -->
      <g style="fill: #262626" transform="translate(639.57733 421.22125)rotate(-90)scale(0.12 -0.12)">
       <defs>
        <path id="ArialMT-54" d="M 1659 0 
L 1659 4041 
L 150 4041 
L 150 4581 
L 3781 4581 
L 3781 4041 
L 2266 4041 
L 2266 0 
L 1659 0 
z
" transform="scale(0.015625)"/>
        <path id="ArialMT-6b" d="M 425 0 
L 425 4581 
L 988 4581 
L 988 1969 
L 2319 3319 
L 3047 3319 
L 1778 2088 
L 3175 0 
L 2481 0 
L 1384 1697 
L 988 1316 
L 988 0 
L 425 0 
z
" transform="scale(0.015625)"/>
       </defs>
       <use xlink:href="#ArialMT-54"/>
       <use xlink:href="#ArialMT-75" x="57.333984"/>
       <use xlink:href="#ArialMT-72" x="112.949219"/>
       <use xlink:href="#ArialMT-6b" x="146.25"/>
       <use xlink:href="#ArialMT-65" x="196.25"/>
       <use xlink:href="#ArialMT-79" x="251.865234"/>
      </g>
     </g>
    </g>
    <g id="xtick_15">
     <g id="text_15">
      <!-- Hong Kong -->
      <g style="fill: #262626" transform="translate(673.395511 445.043125)rotate(-90)scale(0.12 -0.12)">
       <defs>
        <path id="ArialMT-48" d="M 513 0 
L 513 4581 
L 1119 4581 
L 1119 2700 
L 3500 2700 
L 3500 4581 
L 4106 4581 
L 4106 0 
L 3500 0 
L 3500 2159 
L 1119 2159 
L 1119 0 
L 513 0 
z
" transform="scale(0.015625)"/>
       </defs>
       <use xlink:href="#ArialMT-48"/>
       <use xlink:href="#ArialMT-6f" x="72.216797"/>
       <use xlink:href="#ArialMT-6e" x="127.832031"/>
       <use xlink:href="#ArialMT-67" x="183.447266"/>
       <use xlink:href="#ArialMT-20" x="239.0625"/>
       <use xlink:href="#ArialMT-4b" x="266.845703"/>
       <use xlink:href="#ArialMT-6f" x="333.544922"/>
       <use xlink:href="#ArialMT-6e" x="389.160156"/>
       <use xlink:href="#ArialMT-67" x="444.775391"/>
      </g>
     </g>
    </g>
    <g id="xtick_16">
     <g id="text_16">
      <!-- Nigeria -->
      <g style="fill: #262626" transform="translate(707.213693 423.01375)rotate(-90)scale(0.12 -0.12)">
       <defs>
        <path id="ArialMT-4e" d="M 488 0 
L 488 4581 
L 1109 4581 
L 3516 984 
L 3516 4581 
L 4097 4581 
L 4097 0 
L 3475 0 
L 1069 3600 
L 1069 0 
L 488 0 
z
" transform="scale(0.015625)"/>
       </defs>
       <use xlink:href="#ArialMT-4e"/>
       <use xlink:href="#ArialMT-69" x="72.216797"/>
       <use xlink:href="#ArialMT-67" x="94.433594"/>
       <use xlink:href="#ArialMT-65" x="150.048828"/>
       <use xlink:href="#ArialMT-72" x="205.664062"/>
       <use xlink:href="#ArialMT-69" x="238.964844"/>
       <use xlink:href="#ArialMT-61" x="261.181641"/>
      </g>
     </g>
    </g>
    <g id="xtick_17">
     <g id="text_17">
      <!-- Italy -->
      <g style="fill: #262626" transform="translate(741.031875 407.006875)rotate(-90)scale(0.12 -0.12)">
       <use xlink:href="#ArialMT-49"/>
       <use xlink:href="#ArialMT-74" x="27.783203"/>
       <use xlink:href="#ArialMT-61" x="55.566406"/>
       <use xlink:href="#ArialMT-6c" x="111.181641"/>
       <use xlink:href="#ArialMT-79" x="133.398438"/>
      </g>
     </g>
    </g>
    <g id="xtick_18">
     <g id="text_18">
      <!-- Brazil -->
      <g style="fill: #262626" transform="translate(774.920369 415.005625)rotate(-90)scale(0.12 -0.12)">
       <defs>
        <path id="ArialMT-42" d="M 469 0 
L 469 4581 
L 2188 4581 
Q 2713 4581 3030 4442 
Q 3347 4303 3526 4014 
Q 3706 3725 3706 3409 
Q 3706 3116 3547 2856 
Q 3388 2597 3066 2438 
Q 3481 2316 3704 2022 
Q 3928 1728 3928 1328 
Q 3928 1006 3792 729 
Q 3656 453 3456 303 
Q 3256 153 2954 76 
Q 2653 0 2216 0 
L 469 0 
z
M 1075 2656 
L 2066 2656 
Q 2469 2656 2644 2709 
Q 2875 2778 2992 2937 
Q 3109 3097 3109 3338 
Q 3109 3566 3000 3739 
Q 2891 3913 2687 3977 
Q 2484 4041 1991 4041 
L 1075 4041 
L 1075 2656 
z
M 1075 541 
L 2216 541 
Q 2509 541 2628 563 
Q 2838 600 2978 687 
Q 3119 775 3209 942 
Q 3300 1109 3300 1328 
Q 3300 1584 3169 1773 
Q 3038 1963 2805 2039 
Q 2572 2116 2134 2116 
L 1075 2116 
L 1075 541 
z
" transform="scale(0.015625)"/>
        <path id="ArialMT-7a" d="M 125 0 
L 125 456 
L 2238 2881 
Q 1878 2863 1603 2863 
L 250 2863 
L 250 3319 
L 2963 3319 
L 2963 2947 
L 1166 841 
L 819 456 
Q 1197 484 1528 484 
L 3063 484 
L 3063 0 
L 125 0 
z
" transform="scale(0.015625)"/>
       </defs>
       <use xlink:href="#ArialMT-42"/>
       <use xlink:href="#ArialMT-72" x="66.699219"/>
       <use xlink:href="#ArialMT-61" x="100"/>
       <use xlink:href="#ArialMT-7a" x="155.615234"/>
       <use xlink:href="#ArialMT-69" x="205.615234"/>
       <use xlink:href="#ArialMT-6c" x="227.832031"/>
      </g>
     </g>
    </g>
    <g id="xtick_19">
     <g id="text_19">
      <!-- Argentina -->
      <g style="fill: #262626" transform="translate(808.668239 436.365625)rotate(-90)scale(0.12 -0.12)">
       <use xlink:href="#ArialMT-41"/>
       <use xlink:href="#ArialMT-72" x="66.699219"/>
       <use xlink:href="#ArialMT-67" x="100"/>
       <use xlink:href="#ArialMT-65" x="155.615234"/>
       <use xlink:href="#ArialMT-6e" x="211.230469"/>
       <use xlink:href="#ArialMT-74" x="266.845703"/>
       <use xlink:href="#ArialMT-69" x="294.628906"/>
       <use xlink:href="#ArialMT-6e" x="316.845703"/>
       <use xlink:href="#ArialMT-61" x="372.460938"/>
      </g>
     </g>
    </g>
    <g id="xtick_20">
     <g id="text_20">
      <!-- Belgium -->
      <g style="fill: #262626" transform="translate(842.48642 428.351875)rotate(-90)scale(0.12 -0.12)">
       <use xlink:href="#ArialMT-42"/>
       <use xlink:href="#ArialMT-65" x="66.699219"/>
       <use xlink:href="#ArialMT-6c" x="122.314453"/>
       <use xlink:href="#ArialMT-67" x="144.53125"/>
       <use xlink:href="#ArialMT-69" x="200.146484"/>
       <use xlink:href="#ArialMT-75" x="222.363281"/>
       <use xlink:href="#ArialMT-6d" x="277.978516"/>
      </g>
     </g>
    </g>
   </g>
   <g id="matplotlib.axis_2">
    <g id="ytick_1">
     <g id="line2d_1">
      <path d="M 180 378 
L 856.363636 378 
" clip-path="url(#pdbe6e41b1b)" style="fill: none; stroke: #cccccc; stroke-width: 0.8; stroke-linecap: round"/>
     </g>
     <g id="text_21">
      <!-- 0 -->
      <g style="fill: #262626" transform="translate(166.326875 382.294687)scale(0.12 -0.12)">
       <defs>
        <path id="ArialMT-30" d="M 266 2259 
Q 266 3072 433 3567 
Q 600 4063 929 4331 
Q 1259 4600 1759 4600 
Q 2128 4600 2406 4451 
Q 2684 4303 2865 4023 
Q 3047 3744 3150 3342 
Q 3253 2941 3253 2259 
Q 3253 1453 3087 958 
Q 2922 463 2592 192 
Q 2263 -78 1759 -78 
Q 1097 -78 719 397 
Q 266 969 266 2259 
z
M 844 2259 
Q 844 1131 1108 757 
Q 1372 384 1759 384 
Q 2147 384 2411 759 
Q 2675 1134 2675 2259 
Q 2675 3391 2411 3762 
Q 2147 4134 1753 4134 
Q 1366 4134 1134 3806 
Q 844 3388 844 2259 
z
" transform="scale(0.015625)"/>
       </defs>
       <use xlink:href="#ArialMT-30"/>
      </g>
     </g>
    </g>
    <g id="ytick_2">
     <g id="line2d_2">
      <path d="M 180 335.909408 
L 856.363636 335.909408 
" clip-path="url(#pdbe6e41b1b)" style="fill: none; stroke: #cccccc; stroke-width: 0.8; stroke-linecap: round"/>
     </g>
     <g id="text_22">
      <!-- 500 -->
      <g style="fill: #262626" transform="translate(152.980625 340.204095)scale(0.12 -0.12)">
       <defs>
        <path id="ArialMT-35" d="M 266 1200 
L 856 1250 
Q 922 819 1161 601 
Q 1400 384 1738 384 
Q 2144 384 2425 690 
Q 2706 997 2706 1503 
Q 2706 1984 2436 2262 
Q 2166 2541 1728 2541 
Q 1456 2541 1237 2417 
Q 1019 2294 894 2097 
L 366 2166 
L 809 4519 
L 3088 4519 
L 3088 3981 
L 1259 3981 
L 1013 2750 
Q 1425 3038 1878 3038 
Q 2478 3038 2890 2622 
Q 3303 2206 3303 1553 
Q 3303 931 2941 478 
Q 2500 -78 1738 -78 
Q 1113 -78 717 272 
Q 322 622 266 1200 
z
" transform="scale(0.015625)"/>
       </defs>
       <use xlink:href="#ArialMT-35"/>
       <use xlink:href="#ArialMT-30" x="55.615234"/>
       <use xlink:href="#ArialMT-30" x="111.230469"/>
      </g>
     </g>
    </g>
    <g id="ytick_3">
     <g id="line2d_3">
      <path d="M 180 293.818815 
L 856.363636 293.818815 
" clip-path="url(#pdbe6e41b1b)" style="fill: none; stroke: #cccccc; stroke-width: 0.8; stroke-linecap: round"/>
     </g>
     <g id="text_23">
      <!-- 1000 -->
      <g style="fill: #262626" transform="translate(146.3075 298.113503)scale(0.12 -0.12)">
       <defs>
        <path id="ArialMT-31" d="M 2384 0 
L 1822 0 
L 1822 3584 
Q 1619 3391 1289 3197 
Q 959 3003 697 2906 
L 697 3450 
Q 1169 3672 1522 3987 
Q 1875 4303 2022 4600 
L 2384 4600 
L 2384 0 
z
" transform="scale(0.015625)"/>
       </defs>
       <use xlink:href="#ArialMT-31"/>
       <use xlink:href="#ArialMT-30" x="55.615234"/>
       <use xlink:href="#ArialMT-30" x="111.230469"/>
       <use xlink:href="#ArialMT-30" x="166.845703"/>
      </g>
     </g>
    </g>
    <g id="ytick_4">
     <g id="line2d_4">
      <path d="M 180 251.728223 
L 856.363636 251.728223 
" clip-path="url(#pdbe6e41b1b)" style="fill: none; stroke: #cccccc; stroke-width: 0.8; stroke-linecap: round"/>
     </g>
     <g id="text_24">
      <!-- 1500 -->
      <g style="fill: #262626" transform="translate(146.3075 256.02291)scale(0.12 -0.12)">
       <use xlink:href="#ArialMT-31"/>
       <use xlink:href="#ArialMT-35" x="55.615234"/>
       <use xlink:href="#ArialMT-30" x="111.230469"/>
       <use xlink:href="#ArialMT-30" x="166.845703"/>
      </g>
     </g>
    </g>
    <g id="ytick_5">
     <g id="line2d_5">
      <path d="M 180 209.637631 
L 856.363636 209.637631 
" clip-path="url(#pdbe6e41b1b)" style="fill: none; stroke: #cccccc; stroke-width: 0.8; stroke-linecap: round"/>
     </g>
     <g id="text_25">
      <!-- 2000 -->
      <g style="fill: #262626" transform="translate(146.3075 213.932318)scale(0.12 -0.12)">
       <defs>
        <path id="ArialMT-32" d="M 3222 541 
L 3222 0 
L 194 0 
Q 188 203 259 391 
Q 375 700 629 1000 
Q 884 1300 1366 1694 
Q 2113 2306 2375 2664 
Q 2638 3022 2638 3341 
Q 2638 3675 2398 3904 
Q 2159 4134 1775 4134 
Q 1369 4134 1125 3890 
Q 881 3647 878 3216 
L 300 3275 
Q 359 3922 746 4261 
Q 1134 4600 1788 4600 
Q 2447 4600 2831 4234 
Q 3216 3869 3216 3328 
Q 3216 3053 3103 2787 
Q 2991 2522 2730 2228 
Q 2469 1934 1863 1422 
Q 1356 997 1212 845 
Q 1069 694 975 541 
L 3222 541 
z
" transform="scale(0.015625)"/>
       </defs>
       <use xlink:href="#ArialMT-32"/>
       <use xlink:href="#ArialMT-30" x="55.615234"/>
       <use xlink:href="#ArialMT-30" x="111.230469"/>
       <use xlink:href="#ArialMT-30" x="166.845703"/>
      </g>
     </g>
    </g>
    <g id="ytick_6">
     <g id="line2d_6">
      <path d="M 180 167.547038 
L 856.363636 167.547038 
" clip-path="url(#pdbe6e41b1b)" style="fill: none; stroke: #cccccc; stroke-width: 0.8; stroke-linecap: round"/>
     </g>
     <g id="text_26">
      <!-- 2500 -->
      <g style="fill: #262626" transform="translate(146.3075 171.841726)scale(0.12 -0.12)">
       <use xlink:href="#ArialMT-32"/>
       <use xlink:href="#ArialMT-35" x="55.615234"/>
       <use xlink:href="#ArialMT-30" x="111.230469"/>
       <use xlink:href="#ArialMT-30" x="166.845703"/>
      </g>
     </g>
    </g>
    <g id="ytick_7">
     <g id="line2d_7">
      <path d="M 180 125.456446 
L 856.363636 125.456446 
" clip-path="url(#pdbe6e41b1b)" style="fill: none; stroke: #cccccc; stroke-width: 0.8; stroke-linecap: round"/>
     </g>
     <g id="text_27">
      <!-- 3000 -->
      <g style="fill: #262626" transform="translate(146.3075 129.751133)scale(0.12 -0.12)">
       <defs>
        <path id="ArialMT-33" d="M 269 1209 
L 831 1284 
Q 928 806 1161 595 
Q 1394 384 1728 384 
Q 2125 384 2398 659 
Q 2672 934 2672 1341 
Q 2672 1728 2419 1979 
Q 2166 2231 1775 2231 
Q 1616 2231 1378 2169 
L 1441 2663 
Q 1497 2656 1531 2656 
Q 1891 2656 2178 2843 
Q 2466 3031 2466 3422 
Q 2466 3731 2256 3934 
Q 2047 4138 1716 4138 
Q 1388 4138 1169 3931 
Q 950 3725 888 3313 
L 325 3413 
Q 428 3978 793 4289 
Q 1159 4600 1703 4600 
Q 2078 4600 2393 4439 
Q 2709 4278 2876 4000 
Q 3044 3722 3044 3409 
Q 3044 3113 2884 2869 
Q 2725 2625 2413 2481 
Q 2819 2388 3044 2092 
Q 3269 1797 3269 1353 
Q 3269 753 2831 336 
Q 2394 -81 1725 -81 
Q 1122 -81 723 278 
Q 325 638 269 1209 
z
" transform="scale(0.015625)"/>
       </defs>
       <use xlink:href="#ArialMT-33"/>
       <use xlink:href="#ArialMT-30" x="55.615234"/>
       <use xlink:href="#ArialMT-30" x="111.230469"/>
       <use xlink:href="#ArialMT-30" x="166.845703"/>
      </g>
     </g>
    </g>
    <g id="ytick_8">
     <g id="line2d_8">
      <path d="M 180 83.365854 
L 856.363636 83.365854 
" clip-path="url(#pdbe6e41b1b)" style="fill: none; stroke: #cccccc; stroke-width: 0.8; stroke-linecap: round"/>
     </g>
     <g id="text_28">
      <!-- 3500 -->
      <g style="fill: #262626" transform="translate(146.3075 87.660541)scale(0.12 -0.12)">
       <use xlink:href="#ArialMT-33"/>
       <use xlink:href="#ArialMT-35" x="55.615234"/>
       <use xlink:href="#ArialMT-30" x="111.230469"/>
       <use xlink:href="#ArialMT-30" x="166.845703"/>
      </g>
     </g>
    </g>
   </g>
   <g id="patch_3">
    <path d="M 183.381818 378 
L 210.436364 378 
L 210.436364 67.371429 
L 183.381818 67.371429 
z
" clip-path="url(#pdbe6e41b1b)" style="fill: #7a1b2e; stroke: #ffffff; stroke-linejoin: miter"/>
   </g>
   <g id="patch_4">
    <path d="M 217.2 378 
L 244.254545 378 
L 244.254545 289.946481 
L 217.2 289.946481 
z
" clip-path="url(#pdbe6e41b1b)" style="fill: #9b2938; stroke: #ffffff; stroke-linejoin: miter"/>
   </g>
   <g id="patch_5">
    <path d="M 251.018182 378 
L 278.072727 378 
L 278.072727 310.149965 
L 251.018182 310.149965 
z
" clip-path="url(#pdbe6e41b1b)" style="fill: #af474a; stroke: #ffffff; stroke-linejoin: miter"/>
   </g>
   <g id="patch_6">
    <path d="M 284.836364 378 
L 311.890909 378 
L 311.890909 340.539373 
L 284.836364 340.539373 
z
" clip-path="url(#pdbe6e41b1b)" style="fill: #c1655a; stroke: #ffffff; stroke-linejoin: miter"/>
   </g>
   <g id="patch_7">
    <path d="M 318.654545 378 
L 345.709091 378 
L 345.709091 344.916794 
L 318.654545 344.916794 
z
" clip-path="url(#pdbe6e41b1b)" style="fill: #d08270; stroke: #ffffff; stroke-linejoin: miter"/>
   </g>
   <g id="patch_8">
    <path d="M 352.472727 378 
L 379.527273 378 
L 379.527273 351.230383 
L 352.472727 351.230383 
z
" clip-path="url(#pdbe6e41b1b)" style="fill: #e1a289; stroke: #ffffff; stroke-linejoin: miter"/>
   </g>
   <g id="patch_9">
    <path d="M 386.290909 378 
L 413.345455 378 
L 413.345455 358.469965 
L 386.290909 358.469965 
z
" clip-path="url(#pdbe6e41b1b)" style="fill: #ebbba5; stroke: #ffffff; stroke-linejoin: miter"/>
   </g>
   <g id="patch_10">
    <path d="M 420.109091 378 
L 447.163636 378 
L 447.163636 358.554146 
L 420.109091 358.554146 
z
" clip-path="url(#pdbe6e41b1b)" style="fill: #f3d3c2; stroke: #ffffff; stroke-linejoin: miter"/>
   </g>
   <g id="patch_11">
    <path d="M 453.927273 378 
L 480.981818 378 
L 480.981818 358.975052 
L 453.927273 358.975052 
z
" clip-path="url(#pdbe6e41b1b)" style="fill: #f9e6db; stroke: #ffffff; stroke-linejoin: miter"/>
   </g>
   <g id="patch_12">
    <path d="M 487.745455 378 
L 514.8 378 
L 514.8 363.77338 
L 487.745455 363.77338 
z
" clip-path="url(#pdbe6e41b1b)" style="fill: #fdf6f2; stroke: #ffffff; stroke-linejoin: miter"/>
   </g>
   <g id="patch_13">
    <path d="M 521.563636 378 
L 548.618182 378 
L 548.618182 364.362648 
L 521.563636 364.362648 
z
" clip-path="url(#pdbe6e41b1b)" style="fill: #f7f7f7; stroke: #ffffff; stroke-linejoin: miter"/>
   </g>
   <g id="patch_14">
    <path d="M 555.381818 378 
L 582.436364 378 
L 582.436364 364.53101 
L 555.381818 364.53101 
z
" clip-path="url(#pdbe6e41b1b)" style="fill: #e9e9e9; stroke: #ffffff; stroke-linejoin: miter"/>
   </g>
   <g id="patch_15">
    <path d="M 589.2 378 
L 616.254545 378 
L 616.254545 368.150801 
L 589.2 368.150801 
z
" clip-path="url(#pdbe6e41b1b)" style="fill: #d9d9d9; stroke: #ffffff; stroke-linejoin: miter"/>
   </g>
   <g id="patch_16">
    <path d="M 623.018182 378 
L 650.072727 378 
L 650.072727 368.487526 
L 623.018182 368.487526 
z
" clip-path="url(#pdbe6e41b1b)" style="fill: #c7c7c7; stroke: #ffffff; stroke-linejoin: miter"/>
   </g>
   <g id="patch_17">
    <path d="M 656.836364 378 
L 683.890909 378 
L 683.890909 369.160976 
L 656.836364 369.160976 
z
" clip-path="url(#pdbe6e41b1b)" style="fill: #b3b3b3; stroke: #ffffff; stroke-linejoin: miter"/>
   </g>
   <g id="patch_18">
    <path d="M 690.654545 378 
L 717.709091 378 
L 717.709091 369.329338 
L 690.654545 369.329338 
z
" clip-path="url(#pdbe6e41b1b)" style="fill: #999999; stroke: #ffffff; stroke-linejoin: miter"/>
   </g>
   <g id="patch_19">
    <path d="M 724.472727 378 
L 751.527273 378 
L 751.527273 369.581882 
L 724.472727 369.581882 
z
" clip-path="url(#pdbe6e41b1b)" style="fill: #808080; stroke: #ffffff; stroke-linejoin: miter"/>
   </g>
   <g id="patch_20">
    <path d="M 758.290909 378 
L 785.345455 378 
L 785.345455 369.834425 
L 758.290909 369.834425 
z
" clip-path="url(#pdbe6e41b1b)" style="fill: #656565; stroke: #ffffff; stroke-linejoin: miter"/>
   </g>
   <g id="patch_21">
    <path d="M 792.109091 378 
L 819.163636 378 
L 819.163636 370.339512 
L 792.109091 370.339512 
z
" clip-path="url(#pdbe6e41b1b)" style="fill: #4a4a4a; stroke: #ffffff; stroke-linejoin: miter"/>
   </g>
   <g id="patch_22">
    <path d="M 825.927273 378 
L 852.981818 378 
L 852.981818 370.423693 
L 825.927273 370.423693 
z
" clip-path="url(#pdbe6e41b1b)" style="fill: #323232; stroke: #ffffff; stroke-linejoin: miter"/>
   </g>
   <g id="line2d_9">
    <path clip-path="url(#pdbe6e41b1b)" style="fill: none; stroke: #424242; stroke-width: 2.7; stroke-linecap: round"/>
   </g>
   <g id="line2d_10">
    <path clip-path="url(#pdbe6e41b1b)" style="fill: none; stroke: #424242; stroke-width: 2.7; stroke-linecap: round"/>
   </g>
   <g id="line2d_11">
    <path clip-path="url(#pdbe6e41b1b)" style="fill: none; stroke: #424242; stroke-width: 2.7; stroke-linecap: round"/>
   </g>
   <g id="line2d_12">
    <path clip-path="url(#pdbe6e41b1b)" style="fill: none; stroke: #424242; stroke-width: 2.7; stroke-linecap: round"/>
   </g>
   <g id="line2d_13">
    <path clip-path="url(#pdbe6e41b1b)" style="fill: none; stroke: #424242; stroke-width: 2.7; stroke-linecap: round"/>
   </g>
   <g id="line2d_14">
    <path clip-path="url(#pdbe6e41b1b)" style="fill: none; stroke: #424242; stroke-width: 2.7; stroke-linecap: round"/>
   </g>
   <g id="line2d_15">
    <path clip-path="url(#pdbe6e41b1b)" style="fill: none; stroke: #424242; stroke-width: 2.7; stroke-linecap: round"/>
   </g>
   <g id="line2d_16">
    <path clip-path="url(#pdbe6e41b1b)" style="fill: none; stroke: #424242; stroke-width: 2.7; stroke-linecap: round"/>
   </g>
   <g id="line2d_17">
    <path clip-path="url(#pdbe6e41b1b)" style="fill: none; stroke: #424242; stroke-width: 2.7; stroke-linecap: round"/>
   </g>
   <g id="line2d_18">
    <path clip-path="url(#pdbe6e41b1b)" style="fill: none; stroke: #424242; stroke-width: 2.7; stroke-linecap: round"/>
   </g>
   <g id="line2d_19">
    <path clip-path="url(#pdbe6e41b1b)" style="fill: none; stroke: #424242; stroke-width: 2.7; stroke-linecap: round"/>
   </g>
   <g id="line2d_20">
    <path clip-path="url(#pdbe6e41b1b)" style="fill: none; stroke: #424242; stroke-width: 2.7; stroke-linecap: round"/>
   </g>
   <g id="line2d_21">
    <path clip-path="url(#pdbe6e41b1b)" style="fill: none; stroke: #424242; stroke-width: 2.7; stroke-linecap: round"/>
   </g>
   <g id="line2d_22">
    <path clip-path="url(#pdbe6e41b1b)" style="fill: none; stroke: #424242; stroke-width: 2.7; stroke-linecap: round"/>
   </g>
   <g id="line2d_23">
    <path clip-path="url(#pdbe6e41b1b)" style="fill: none; stroke: #424242; stroke-width: 2.7; stroke-linecap: round"/>
   </g>
   <g id="line2d_24">
    <path clip-path="url(#pdbe6e41b1b)" style="fill: none; stroke: #424242; stroke-width: 2.7; stroke-linecap: round"/>
   </g>
   <g id="line2d_25">
    <path clip-path="url(#pdbe6e41b1b)" style="fill: none; stroke: #424242; stroke-width: 2.7; stroke-linecap: round"/>
   </g>
   <g id="line2d_26">
    <path clip-path="url(#pdbe6e41b1b)" style="fill: none; stroke: #424242; stroke-width: 2.7; stroke-linecap: round"/>
   </g>
   <g id="line2d_27">
    <path clip-path="url(#pdbe6e41b1b)" style="fill: none; stroke: #424242; stroke-width: 2.7; stroke-linecap: round"/>
   </g>
   <g id="line2d_28">
    <path clip-path="url(#pdbe6e41b1b)" style="fill: none; stroke: #424242; stroke-width: 2.7; stroke-linecap: round"/>
   </g>
   <g id="patch_23">
    <path d="M 180 378 
L 180 51.84 
" style="fill: none; stroke: #cccccc; stroke-width: 0.8; stroke-linejoin: miter; stroke-linecap: square"/>
   </g>
   <g id="patch_24">
    <path d="M 856.363636 378 
L 856.363636 51.84 
" style="fill: none; stroke: #cccccc; stroke-width: 0.8; stroke-linejoin: miter; stroke-linecap: square"/>
   </g>
   <g id="patch_25">
    <path d="M 180 378 
L 856.363636 378 
" style="fill: none; stroke: #cccccc; stroke-width: 0.8; stroke-linejoin: miter; stroke-linecap: square"/>
   </g>
   <g id="patch_26">
    <path d="M 180 51.84 
L 856.363636 51.84 
" style="fill: none; stroke: #cccccc; stroke-width: 0.8; stroke-linejoin: miter; stroke-linecap: square"/>
   </g>
   <g id="text_29">
    <!-- Top 20 producing countries -->
    <g style="fill: #262626" transform="translate(419.986896 45.84)scale(0.15 -0.15)">
     <defs>
      <path id="Arial-BoldMT-54" d="M 1497 0 
L 1497 3806 
L 138 3806 
L 138 4581 
L 3778 4581 
L 3778 3806 
L 2422 3806 
L 2422 0 
L 1497 0 
z
" transform="scale(0.015625)"/>
      <path id="Arial-BoldMT-6f" d="M 256 1706 
Q 256 2144 472 2553 
Q 688 2963 1083 3178 
Q 1478 3394 1966 3394 
Q 2719 3394 3200 2905 
Q 3681 2416 3681 1669 
Q 3681 916 3195 420 
Q 2709 -75 1972 -75 
Q 1516 -75 1102 131 
Q 688 338 472 736 
Q 256 1134 256 1706 
z
M 1156 1659 
Q 1156 1166 1390 903 
Q 1625 641 1969 641 
Q 2313 641 2545 903 
Q 2778 1166 2778 1666 
Q 2778 2153 2545 2415 
Q 2313 2678 1969 2678 
Q 1625 2678 1390 2415 
Q 1156 2153 1156 1659 
z
" transform="scale(0.015625)"/>
      <path id="Arial-BoldMT-70" d="M 434 3319 
L 1253 3319 
L 1253 2831 
Q 1413 3081 1684 3237 
Q 1956 3394 2288 3394 
Q 2866 3394 3269 2941 
Q 3672 2488 3672 1678 
Q 3672 847 3265 386 
Q 2859 -75 2281 -75 
Q 2006 -75 1782 34 
Q 1559 144 1313 409 
L 1313 -1263 
L 434 -1263 
L 434 3319 
z
M 1303 1716 
Q 1303 1156 1525 889 
Q 1747 622 2066 622 
Q 2372 622 2575 867 
Q 2778 1113 2778 1672 
Q 2778 2194 2568 2447 
Q 2359 2700 2050 2700 
Q 1728 2700 1515 2451 
Q 1303 2203 1303 1716 
z
" transform="scale(0.015625)"/>
      <path id="Arial-BoldMT-20" transform="scale(0.015625)"/>
      <path id="Arial-BoldMT-32" d="M 3238 816 
L 3238 0 
L 159 0 
Q 209 463 459 877 
Q 709 1291 1447 1975 
Q 2041 2528 2175 2725 
Q 2356 2997 2356 3263 
Q 2356 3556 2198 3714 
Q 2041 3872 1763 3872 
Q 1488 3872 1325 3706 
Q 1163 3541 1138 3156 
L 263 3244 
Q 341 3969 753 4284 
Q 1166 4600 1784 4600 
Q 2463 4600 2850 4234 
Q 3238 3869 3238 3325 
Q 3238 3016 3127 2736 
Q 3016 2456 2775 2150 
Q 2616 1947 2200 1565 
Q 1784 1184 1673 1059 
Q 1563 934 1494 816 
L 3238 816 
z
" transform="scale(0.015625)"/>
      <path id="Arial-BoldMT-30" d="M 1756 4600 
Q 2422 4600 2797 4125 
Q 3244 3563 3244 2259 
Q 3244 959 2794 391 
Q 2422 -78 1756 -78 
Q 1088 -78 678 436 
Q 269 950 269 2269 
Q 269 3563 719 4131 
Q 1091 4600 1756 4600 
z
M 1756 3872 
Q 1597 3872 1472 3770 
Q 1347 3669 1278 3406 
Q 1188 3066 1188 2259 
Q 1188 1453 1269 1151 
Q 1350 850 1473 750 
Q 1597 650 1756 650 
Q 1916 650 2041 751 
Q 2166 853 2234 1116 
Q 2325 1453 2325 2259 
Q 2325 3066 2244 3367 
Q 2163 3669 2039 3770 
Q 1916 3872 1756 3872 
z
" transform="scale(0.015625)"/>
      <path id="Arial-BoldMT-72" d="M 1300 0 
L 422 0 
L 422 3319 
L 1238 3319 
L 1238 2847 
Q 1447 3181 1614 3287 
Q 1781 3394 1994 3394 
Q 2294 3394 2572 3228 
L 2300 2463 
Q 2078 2606 1888 2606 
Q 1703 2606 1575 2504 
Q 1447 2403 1373 2137 
Q 1300 1872 1300 1025 
L 1300 0 
z
" transform="scale(0.015625)"/>
      <path id="Arial-BoldMT-64" d="M 3503 0 
L 2688 0 
L 2688 488 
Q 2484 203 2207 64 
Q 1931 -75 1650 -75 
Q 1078 -75 670 386 
Q 263 847 263 1672 
Q 263 2516 659 2955 
Q 1056 3394 1663 3394 
Q 2219 3394 2625 2931 
L 2625 4581 
L 3503 4581 
L 3503 0 
z
M 1159 1731 
Q 1159 1200 1306 963 
Q 1519 619 1900 619 
Q 2203 619 2415 876 
Q 2628 1134 2628 1647 
Q 2628 2219 2422 2470 
Q 2216 2722 1894 2722 
Q 1581 2722 1370 2473 
Q 1159 2225 1159 1731 
z
" transform="scale(0.015625)"/>
      <path id="Arial-BoldMT-75" d="M 2644 0 
L 2644 497 
Q 2463 231 2167 78 
Q 1872 -75 1544 -75 
Q 1209 -75 943 72 
Q 678 219 559 484 
Q 441 750 441 1219 
L 441 3319 
L 1319 3319 
L 1319 1794 
Q 1319 1094 1367 936 
Q 1416 778 1544 686 
Q 1672 594 1869 594 
Q 2094 594 2272 717 
Q 2450 841 2515 1023 
Q 2581 1206 2581 1919 
L 2581 3319 
L 3459 3319 
L 3459 0 
L 2644 0 
z
" transform="scale(0.015625)"/>
      <path id="Arial-BoldMT-63" d="M 3353 2338 
L 2488 2181 
Q 2444 2441 2289 2572 
Q 2134 2703 1888 2703 
Q 1559 2703 1364 2476 
Q 1169 2250 1169 1719 
Q 1169 1128 1367 884 
Q 1566 641 1900 641 
Q 2150 641 2309 783 
Q 2469 925 2534 1272 
L 3397 1125 
Q 3263 531 2881 228 
Q 2500 -75 1859 -75 
Q 1131 -75 698 384 
Q 266 844 266 1656 
Q 266 2478 700 2936 
Q 1134 3394 1875 3394 
Q 2481 3394 2839 3133 
Q 3197 2872 3353 2338 
z
" transform="scale(0.015625)"/>
      <path id="Arial-BoldMT-69" d="M 459 3769 
L 459 4581 
L 1338 4581 
L 1338 3769 
L 459 3769 
z
M 459 0 
L 459 3319 
L 1338 3319 
L 1338 0 
L 459 0 
z
" transform="scale(0.015625)"/>
      <path id="Arial-BoldMT-6e" d="M 3478 0 
L 2600 0 
L 2600 1694 
Q 2600 2231 2544 2389 
Q 2488 2547 2361 2634 
Q 2234 2722 2056 2722 
Q 1828 2722 1647 2597 
Q 1466 2472 1398 2265 
Q 1331 2059 1331 1503 
L 1331 0 
L 453 0 
L 453 3319 
L 1269 3319 
L 1269 2831 
Q 1703 3394 2363 3394 
Q 2653 3394 2893 3289 
Q 3134 3184 3257 3021 
Q 3381 2859 3429 2653 
Q 3478 2447 3478 2063 
L 3478 0 
z
" transform="scale(0.015625)"/>
      <path id="Arial-BoldMT-67" d="M 378 -219 
L 1381 -341 
Q 1406 -516 1497 -581 
Q 1622 -675 1891 -675 
Q 2234 -675 2406 -572 
Q 2522 -503 2581 -350 
Q 2622 -241 2622 53 
L 2622 538 
Q 2228 0 1628 0 
Q 959 0 569 566 
Q 263 1013 263 1678 
Q 263 2513 664 2953 
Q 1066 3394 1663 3394 
Q 2278 3394 2678 2853 
L 2678 3319 
L 3500 3319 
L 3500 341 
Q 3500 -247 3403 -537 
Q 3306 -828 3131 -993 
Q 2956 -1159 2664 -1253 
Q 2372 -1347 1925 -1347 
Q 1081 -1347 728 -1058 
Q 375 -769 375 -325 
Q 375 -281 378 -219 
z
M 1163 1728 
Q 1163 1200 1367 954 
Q 1572 709 1872 709 
Q 2194 709 2416 961 
Q 2638 1213 2638 1706 
Q 2638 2222 2425 2472 
Q 2213 2722 1888 2722 
Q 1572 2722 1367 2476 
Q 1163 2231 1163 1728 
z
" transform="scale(0.015625)"/>
      <path id="Arial-BoldMT-74" d="M 1981 3319 
L 1981 2619 
L 1381 2619 
L 1381 1281 
Q 1381 875 1398 808 
Q 1416 741 1477 697 
Q 1538 653 1625 653 
Q 1747 653 1978 738 
L 2053 56 
Q 1747 -75 1359 -75 
Q 1122 -75 931 4 
Q 741 84 652 211 
Q 563 338 528 553 
Q 500 706 500 1172 
L 500 2619 
L 97 2619 
L 97 3319 
L 500 3319 
L 500 3978 
L 1381 4491 
L 1381 3319 
L 1981 3319 
z
" transform="scale(0.015625)"/>
      <path id="Arial-BoldMT-65" d="M 2381 1056 
L 3256 909 
Q 3088 428 2723 176 
Q 2359 -75 1813 -75 
Q 947 -75 531 491 
Q 203 944 203 1634 
Q 203 2459 634 2926 
Q 1066 3394 1725 3394 
Q 2466 3394 2894 2905 
Q 3322 2416 3303 1406 
L 1103 1406 
Q 1113 1016 1316 798 
Q 1519 581 1822 581 
Q 2028 581 2168 693 
Q 2309 806 2381 1056 
z
M 2431 1944 
Q 2422 2325 2234 2523 
Q 2047 2722 1778 2722 
Q 1491 2722 1303 2513 
Q 1116 2303 1119 1944 
L 2431 1944 
z
" transform="scale(0.015625)"/>
      <path id="Arial-BoldMT-73" d="M 150 947 
L 1031 1081 
Q 1088 825 1259 692 
Q 1431 559 1741 559 
Q 2081 559 2253 684 
Q 2369 772 2369 919 
Q 2369 1019 2306 1084 
Q 2241 1147 2013 1200 
Q 950 1434 666 1628 
Q 272 1897 272 2375 
Q 272 2806 612 3100 
Q 953 3394 1669 3394 
Q 2350 3394 2681 3172 
Q 3013 2950 3138 2516 
L 2309 2363 
Q 2256 2556 2107 2659 
Q 1959 2763 1684 2763 
Q 1338 2763 1188 2666 
Q 1088 2597 1088 2488 
Q 1088 2394 1175 2328 
Q 1294 2241 1995 2081 
Q 2697 1922 2975 1691 
Q 3250 1456 3250 1038 
Q 3250 581 2869 253 
Q 2488 -75 1741 -75 
Q 1063 -75 667 200 
Q 272 475 150 947 
z
" transform="scale(0.015625)"/>
     </defs>
     <use xlink:href="#Arial-BoldMT-54"/>
     <use xlink:href="#Arial-BoldMT-6f" x="53.708984"/>
     <use xlink:href="#Arial-BoldMT-70" x="114.792969"/>
     <use xlink:href="#Arial-BoldMT-20" x="175.876953"/>
     <use xlink:href="#Arial-BoldMT-32" x="203.660156"/>
     <use xlink:href="#Arial-BoldMT-30" x="259.275391"/>
     <use xlink:href="#Arial-BoldMT-20" x="314.890625"/>
     <use xlink:href="#Arial-BoldMT-70" x="342.673828"/>
     <use xlink:href="#Arial-BoldMT-72" x="403.757812"/>
     <use xlink:href="#Arial-BoldMT-6f" x="442.673828"/>
     <use xlink:href="#Arial-BoldMT-64" x="503.757812"/>
     <use xlink:href="#Arial-BoldMT-75" x="564.841797"/>
     <use xlink:href="#Arial-BoldMT-63" x="625.925781"/>
     <use xlink:href="#Arial-BoldMT-69" x="681.541016"/>
     <use xlink:href="#Arial-BoldMT-6e" x="709.324219"/>
     <use xlink:href="#Arial-BoldMT-67" x="770.408203"/>
     <use xlink:href="#Arial-BoldMT-20" x="831.492188"/>
     <use xlink:href="#Arial-BoldMT-63" x="859.275391"/>
     <use xlink:href="#Arial-BoldMT-6f" x="914.890625"/>
     <use xlink:href="#Arial-BoldMT-75" x="975.974609"/>
     <use xlink:href="#Arial-BoldMT-6e" x="1037.058594"/>
     <use xlink:href="#Arial-BoldMT-74" x="1098.142578"/>
     <use xlink:href="#Arial-BoldMT-72" x="1131.443359"/>
     <use xlink:href="#Arial-BoldMT-69" x="1170.359375"/>
     <use xlink:href="#Arial-BoldMT-65" x="1198.142578"/>
     <use xlink:href="#Arial-BoldMT-73" x="1253.757812"/>
    </g>
   </g>
  </g>
  <g id="axes_2">
   <g id="matplotlib.axis_3"/>
   <g id="matplotlib.axis_4"/>
   <g id="patch_27">
    <path d="M 1267.920309 215.343765 
C 1267.920309 183.426512 1257.183277 152.418727 1237.445924 127.335906 
C 1217.70857 102.253084 1190.09571 84.524675 1159.07371 77.018239 
C 1128.05171 69.511803 1095.388488 72.655126 1066.367305 85.939778 
C 1037.346121 99.224429 1013.620869 121.893328 999.029096 150.27979 
L 1125.602893 215.343765 
L 1267.920309 215.343765 
z
" style="fill: #29030b; opacity: 0.5; stroke: #29030b; stroke-linejoin: miter"/>
   </g>
   <g id="patch_28">
    <path d="M 997.020847 158.579321 
C 988.799029 174.573836 983.68295 191.982789 981.944063 209.882484 
C 980.205176 227.782179 981.874789 245.850336 986.864315 263.128282 
L 1123.594644 223.643297 
L 997.020847 158.579321 
z
" style="fill: #34070d; opacity: 0.5; stroke: #34070d; stroke-linejoin: miter"/>
   </g>
   <g id="patch_29">
    <path d="M 986.864315 263.128282 
C 990.704405 276.425913 996.463917 289.092501 1003.96069 300.727433 
C 1011.457464 312.362365 1020.611622 322.841671 1031.133638 331.833913 
L 1123.594644 223.643297 
L 986.864315 263.128282 
z
" style="fill: #3a1011; opacity: 0.5; stroke: #3a1011; stroke-linejoin: miter"/>
   </g>
   <g id="patch_30">
    <path d="M 1031.133638 331.833913 
C 1036.935834 336.792539 1043.12753 341.276387 1049.648796 345.242057 
C 1056.170062 349.207727 1062.999787 352.642381 1070.071865 355.512774 
L 1123.594644 223.643297 
L 1031.133638 331.833913 
z
" style="fill: #3f1a16; opacity: 0.5; stroke: #3f1a16; stroke-linejoin: miter"/>
   </g>
   <g id="patch_31">
    <path d="M 1070.071865 355.512774 
C 1076.316804 358.047451 1082.733914 360.135317 1089.274731 361.760604 
C 1095.815547 363.385891 1102.463563 364.544497 1109.16857 365.227672 
L 1123.594644 223.643297 
L 1070.071865 355.512774 
z
" style="fill: #43241d; opacity: 0.5; stroke: #43241d; stroke-linejoin: miter"/>
   </g>
   <g id="patch_32">
    <path d="M 1109.16857 365.227672 
C 1114.593209 365.78039 1120.045133 366.020894 1125.49737 365.947993 
C 1130.949607 365.875092 1136.393152 365.488908 1141.801074 364.79135 
L 1123.594644 223.643297 
L 1109.16857 365.227672 
z
" style="fill: #482f25; opacity: 0.5; stroke: #482f25; stroke-linejoin: miter"/>
   </g>
   <g id="patch_33">
    <path d="M 1141.801074 364.79135 
C 1145.745969 364.282505 1149.667798 363.608502 1153.55623 362.771117 
C 1157.444662 361.933731 1161.29628 360.9337 1165.100937 359.773655 
L 1123.594644 223.643297 
L 1141.801074 364.79135 
z
" style="fill: #4a372e; opacity: 0.5; stroke: #4a372e; stroke-linejoin: miter"/>
   </g>
   <g id="patch_34">
    <path d="M 1165.100937 359.773655 
C 1168.88919 358.618613 1172.627579 357.305944 1176.30634 355.839076 
C 1179.985101 354.372208 1183.601029 352.75242 1187.144681 350.983941 
L 1123.594644 223.643297 
L 1165.100937 359.773655 
z
" style="fill: #4b3f38; opacity: 0.5; stroke: #4b3f38; stroke-linejoin: miter"/>
   </g>
   <g id="patch_35">
    <path d="M 1187.144681 350.983941 
C 1190.611608 349.253752 1194.006432 347.382701 1197.320666 345.375464 
C 1200.6349 343.368228 1203.865779 341.22648 1207.005227 338.955575 
L 1123.594644 223.643297 
L 1187.144681 350.983941 
z
" style="fill: #4c4540; opacity: 0.5; stroke: #4c4540; stroke-linejoin: miter"/>
   </g>
   <g id="patch_36">
    <path d="M 1207.005227 338.955575 
C 1209.352724 337.257525 1211.64782 335.488186 1213.887308 333.650032 
C 1216.126796 331.811878 1218.309631 329.905766 1220.43276 327.934361 
L 1123.594644 223.643297 
L 1207.005227 338.955575 
z
" style="fill: #4c4a48; opacity: 0.5; stroke: #4c4a48; stroke-linejoin: miter"/>
   </g>
   <g id="patch_37">
    <path d="M 1220.43276 327.934361 
C 1222.467937 326.044624 1224.447362 324.095719 1226.368492 322.09015 
C 1228.289623 320.084581 1230.151635 318.023207 1231.952138 315.908677 
L 1123.594644 223.643297 
L 1220.43276 327.934361 
z
" style="fill: #4a4a4a; opacity: 0.5; stroke: #4a4a4a; stroke-linejoin: miter"/>
   </g>
   <g id="patch_38">
    <path d="M 1231.952138 315.908677 
C 1233.730409 313.820255 1235.447932 311.68086 1237.102554 309.493172 
C 1238.757177 307.305485 1240.348207 305.070419 1241.873651 302.790775 
L 1123.594644 223.643297 
L 1231.952138 315.908677 
z
" style="fill: #464646; opacity: 0.5; stroke: #464646; stroke-linejoin: miter"/>
   </g>
   <g id="patch_39">
    <path d="M 1241.873651 302.790775 
C 1242.989096 301.12384 1244.069177 299.433511 1245.113171 297.720921 
C 1246.157166 296.00833 1247.164839 294.273861 1248.135517 292.518676 
L 1123.594644 223.643297 
L 1241.873651 302.790775 
z
" style="fill: #414141; opacity: 0.5; stroke: #414141; stroke-linejoin: miter"/>
   </g>
   <g id="patch_40">
    <path d="M 1248.135517 292.518676 
C 1249.073007 290.823501 1249.975788 289.109363 1250.843297 287.377331 
C 1251.710806 285.6453 1252.542861 283.895738 1253.338943 282.129737 
L 1123.594644 223.643297 
L 1248.135517 292.518676 
z
" style="fill: #3c3c3c; opacity: 0.5; stroke: #3c3c3c; stroke-linejoin: miter"/>
   </g>
   <g id="patch_41">
    <path d="M 1253.338943 282.129737 
C 1254.078662 280.488771 1254.787182 278.833919 1255.464122 277.166075 
C 1256.141061 275.49823 1256.786298 273.817693 1257.399485 272.125371 
L 1123.594644 223.643297 
L 1253.338943 282.129737 
z
" style="fill: #363636; opacity: 0.5; stroke: #363636; stroke-linejoin: miter"/>
   </g>
   <g id="patch_42">
    <path d="M 1257.399485 272.125371 
C 1258.000991 270.465285 1258.57155 268.794148 1259.110867 267.11283 
C 1259.650183 265.431511 1260.158163 263.740301 1260.634543 262.040079 
L 1123.594644 223.643297 
L 1257.399485 272.125371 
z
" style="fill: #2e2e2e; opacity: 0.5; stroke: #2e2e2e; stroke-linejoin: miter"/>
   </g>
   <g id="patch_43">
    <path d="M 1260.634543 262.040079 
C 1261.097047 260.38938 1261.529689 258.730459 1261.932256 257.064129 
C 1262.334823 255.397798 1262.707249 253.724331 1263.049353 252.044544 
L 1123.594644 223.643297 
L 1260.634543 262.040079 
z
" style="fill: #262626; opacity: 0.5; stroke: #262626; stroke-linejoin: miter"/>
   </g>
   <g id="patch_44">
    <path d="M 1263.049353 252.044544 
C 1263.381194 250.415155 1263.684452 248.780074 1263.958988 247.140056 
C 1264.233525 245.500038 1264.479297 243.855334 1264.696192 242.206703 
L 1123.594644 223.643297 
L 1263.049353 252.044544 
z
" style="fill: #1e1e1e; opacity: 0.5; stroke: #1e1e1e; stroke-linejoin: miter"/>
   </g>
   <g id="patch_45">
    <path d="M 1264.696192 242.206703 
C 1264.89967 240.660053 1265.077705 239.110162 1265.230223 237.557659 
C 1265.382742 236.005156 1265.509725 234.45025 1265.611119 232.893571 
L 1123.594644 223.643297 
L 1264.696192 242.206703 
z
" style="fill: #161616; opacity: 0.5; stroke: #161616; stroke-linejoin: miter"/>
   </g>
   <g id="patch_46">
    <path d="M 1265.611119 232.893571 
C 1265.7114 231.354 1265.786638 229.8129 1265.836805 228.270882 
C 1265.886971 226.728864 1265.91206 225.186132 1265.91206 223.643299 
L 1123.594644 223.643297 
L 1265.611119 232.893571 
z
" style="fill: #0f0f0f; opacity: 0.5; stroke: #0f0f0f; stroke-linejoin: miter"/>
   </g>
   <g id="patch_47">
    <path d="M 1270.766657 212.497417 
C 1270.766657 180.580164 1260.029626 149.572379 1240.292272 124.489558 
C 1220.554919 99.406736 1192.942059 81.678326 1161.920059 74.17189 
C 1130.898059 66.665455 1098.234837 69.808778 1069.213653 83.093429 
C 1040.19247 96.378081 1016.467217 119.046979 1001.875445 147.433441 
L 1128.449241 212.497417 
L 1270.766657 212.497417 
z
" style="fill: #8a0b25; stroke: #ffffff; stroke-linejoin: miter"/>
   </g>
   <g id="patch_48">
    <path d="M 999.867196 155.732973 
C 991.645377 171.727488 986.529299 189.136441 984.790412 207.036136 
C 983.051525 224.93583 984.721138 243.003988 989.710663 260.281934 
L 1126.440992 220.796949 
L 999.867196 155.732973 
z
" style="fill: #ae172a; stroke: #ffffff; stroke-linejoin: miter"/>
   </g>
   <g id="patch_49">
    <path d="M 989.710663 260.281934 
C 993.550753 273.579564 999.310265 286.246153 1006.807039 297.881085 
C 1014.303812 309.516017 1023.45797 319.995322 1033.979987 328.987565 
L 1126.440992 220.796949 
L 989.710663 260.281934 
z
" style="fill: #c13639; stroke: #ffffff; stroke-linejoin: miter"/>
   </g>
   <g id="patch_50">
    <path d="M 1033.979987 328.987565 
C 1039.782182 333.946191 1045.973879 338.430039 1052.495144 342.395709 
C 1059.01641 346.361379 1065.846136 349.796033 1072.918214 352.666426 
L 1126.440992 220.796949 
L 1033.979987 328.987565 
z
" style="fill: #d25849; stroke: #ffffff; stroke-linejoin: miter"/>
   </g>
   <g id="patch_51">
    <path d="M 1072.918214 352.666426 
C 1079.163152 355.201103 1085.580262 357.288968 1092.121079 358.914255 
C 1098.661896 360.539543 1105.309912 361.698149 1112.014918 362.381324 
L 1126.440992 220.796949 
L 1072.918214 352.666426 
z
" style="fill: #e17860; stroke: #ffffff; stroke-linejoin: miter"/>
   </g>
   <g id="patch_52">
    <path d="M 1112.014918 362.381324 
C 1117.439557 362.934042 1122.891481 363.174545 1128.343718 363.101645 
C 1133.795956 363.028744 1139.2395 362.642559 1144.647422 361.945001 
L 1126.440992 220.796949 
L 1112.014918 362.381324 
z
" style="fill: #f09c7b; stroke: #ffffff; stroke-linejoin: miter"/>
   </g>
   <g id="patch_53">
    <path d="M 1144.647422 361.945001 
C 1148.592317 361.436157 1152.514146 360.762154 1156.402578 359.924768 
C 1160.29101 359.087383 1164.142628 358.087351 1167.947285 356.927307 
L 1126.440992 220.796949 
L 1144.647422 361.945001 
z
" style="fill: #f7b799; stroke: #ffffff; stroke-linejoin: miter"/>
   </g>
   <g id="patch_54">
    <path d="M 1167.947285 356.927307 
C 1171.735538 355.772265 1175.473927 354.459596 1179.152688 352.992728 
C 1182.831449 351.52586 1186.447377 349.906072 1189.991029 348.137593 
L 1126.440992 220.796949 
L 1167.947285 356.927307 
z
" style="fill: #fbd0b9; stroke: #ffffff; stroke-linejoin: miter"/>
   </g>
   <g id="patch_55">
    <path d="M 1189.991029 348.137593 
C 1193.457957 346.407404 1196.852781 344.536352 1200.167014 342.529116 
C 1203.481248 340.521879 1206.712127 338.380132 1209.851575 336.109227 
L 1126.440992 220.796949 
L 1189.991029 348.137593 
z
" style="fill: #fee5d6; stroke: #ffffff; stroke-linejoin: miter"/>
   </g>
   <g id="patch_56">
    <path d="M 1209.851575 336.109227 
C 1212.199072 334.411176 1214.494169 332.641837 1216.733656 330.803683 
C 1218.973144 328.965529 1221.155979 327.059418 1223.279109 325.088013 
L 1126.440992 220.796949 
L 1209.851575 336.109227 
z
" style="fill: #fef6f1; stroke: #ffffff; stroke-linejoin: miter"/>
   </g>
   <g id="patch_57">
    <path d="M 1223.279109 325.088013 
C 1225.314285 323.198276 1227.29371 321.249371 1229.214841 319.243802 
C 1231.135971 317.238233 1232.997984 315.176859 1234.798486 313.062328 
L 1126.440992 220.796949 
L 1223.279109 325.088013 
z
" style="fill: #f7f7f7; stroke: #ffffff; stroke-linejoin: miter"/>
   </g>
   <g id="patch_58">
    <path d="M 1234.798486 313.062328 
C 1236.576758 310.973907 1238.294281 308.834512 1239.948903 306.646824 
C 1241.603525 304.459136 1243.194555 302.22407 1244.719999 299.944427 
L 1126.440992 220.796949 
L 1234.798486 313.062328 
z
" style="fill: #e9e9e9; stroke: #ffffff; stroke-linejoin: miter"/>
   </g>
   <g id="patch_59">
    <path d="M 1244.719999 299.944427 
C 1245.835444 298.277492 1246.915526 296.587163 1247.95952 294.874572 
C 1249.003514 293.161982 1250.011188 291.427513 1250.981865 289.672328 
L 1126.440992 220.796949 
L 1244.719999 299.944427 
z
" style="fill: #d9d9d9; stroke: #ffffff; stroke-linejoin: miter"/>
   </g>
   <g id="patch_60">
    <path d="M 1250.981865 289.672328 
C 1251.919355 287.977153 1252.822136 286.263014 1253.689645 284.530983 
C 1254.557154 282.798952 1255.38921 281.049389 1256.185291 279.283389 
L 1126.440992 220.796949 
L 1250.981865 289.672328 
z
" style="fill: #c7c7c7; stroke: #ffffff; stroke-linejoin: miter"/>
   </g>
   <g id="patch_61">
    <path d="M 1256.185291 279.283389 
C 1256.92501 277.642423 1257.63353 275.987571 1258.31047 274.319726 
C 1258.98741 272.651882 1259.632647 270.971345 1260.245833 269.279022 
L 1126.440992 220.796949 
L 1256.185291 279.283389 
z
" style="fill: #b3b3b3; stroke: #ffffff; stroke-linejoin: miter"/>
   </g>
   <g id="patch_62">
    <path d="M 1260.245833 269.279022 
C 1260.847339 267.618936 1261.417898 265.9478 1261.957215 264.266481 
C 1262.496531 262.585163 1263.004512 260.893953 1263.480892 259.19373 
L 1126.440992 220.796949 
L 1260.245833 269.279022 
z
" style="fill: #999999; stroke: #ffffff; stroke-linejoin: miter"/>
   </g>
   <g id="patch_63">
    <path d="M 1263.480892 259.19373 
C 1263.943396 257.543031 1264.376037 255.884111 1264.778604 254.21778 
C 1265.181171 252.55145 1265.553598 250.877982 1265.895702 249.198196 
L 1126.440992 220.796949 
L 1263.480892 259.19373 
z
" style="fill: #808080; stroke: #ffffff; stroke-linejoin: miter"/>
   </g>
   <g id="patch_64">
    <path d="M 1265.895702 249.198196 
C 1266.227542 247.568806 1266.5308 245.933726 1266.805337 244.293708 
C 1267.079873 242.65369 1267.325645 241.008986 1267.54254 239.360354 
L 1126.440992 220.796949 
L 1265.895702 249.198196 
z
" style="fill: #656565; stroke: #ffffff; stroke-linejoin: miter"/>
   </g>
   <g id="patch_65">
    <path d="M 1267.54254 239.360354 
C 1267.746018 237.813705 1267.924053 236.263814 1268.076572 234.711311 
C 1268.229091 233.158807 1268.356073 231.603901 1268.457468 230.047223 
L 1126.440992 220.796949 
L 1267.54254 239.360354 
z
" style="fill: #4a4a4a; stroke: #ffffff; stroke-linejoin: miter"/>
   </g>
   <g id="patch_66">
    <path d="M 1268.457468 230.047223 
C 1268.557748 228.507652 1268.632986 226.966551 1268.683153 225.424534 
C 1268.73332 223.882516 1268.758408 222.339784 1268.758408 220.79695 
L 1126.440992 220.796949 
L 1268.457468 230.047223 
z
" style="fill: #323232; stroke: #ffffff; stroke-linejoin: miter"/>
   </g>
   <g id="text_30">
    <!-- United States -->
    <g style="fill: #262626" transform="translate(1165.26714 63.441525)scale(0.12 -0.12)">
     <use xlink:href="#ArialMT-55"/>
     <use xlink:href="#ArialMT-6e" x="72.216797"/>
     <use xlink:href="#ArialMT-69" x="127.832031"/>
     <use xlink:href="#ArialMT-74" x="150.048828"/>
     <use xlink:href="#ArialMT-65" x="177.832031"/>
     <use xlink:href="#ArialMT-64" x="233.447266"/>
     <use xlink:href="#ArialMT-20" x="289.0625"/>
     <use xlink:href="#ArialMT-53" x="316.845703"/>
     <use xlink:href="#ArialMT-74" x="383.544922"/>
     <use xlink:href="#ArialMT-61" x="411.328125"/>
     <use xlink:href="#ArialMT-74" x="466.943359"/>
     <use xlink:href="#ArialMT-65" x="494.726562"/>
     <use xlink:href="#ArialMT-73" x="550.341797"/>
    </g>
   </g>
   <g id="text_31">
    <!-- India -->
    <g style="fill: #262626" transform="translate(944.605979 208.762242)scale(0.12 -0.12)">
     <use xlink:href="#ArialMT-49"/>
     <use xlink:href="#ArialMT-6e" x="27.783203"/>
     <use xlink:href="#ArialMT-64" x="83.398438"/>
     <use xlink:href="#ArialMT-69" x="139.013672"/>
     <use xlink:href="#ArialMT-61" x="161.230469"/>
    </g>
   </g>
   <g id="text_32">
    <!-- United Kingdom -->
    <g style="fill: #262626" transform="translate(909.465518 308.621374)scale(0.12 -0.12)">
     <use xlink:href="#ArialMT-55"/>
     <use xlink:href="#ArialMT-6e" x="72.216797"/>
     <use xlink:href="#ArialMT-69" x="127.832031"/>
     <use xlink:href="#ArialMT-74" x="150.048828"/>
     <use xlink:href="#ArialMT-65" x="177.832031"/>
     <use xlink:href="#ArialMT-64" x="233.447266"/>
     <use xlink:href="#ArialMT-20" x="289.0625"/>
     <use xlink:href="#ArialMT-4b" x="316.845703"/>
     <use xlink:href="#ArialMT-69" x="383.544922"/>
     <use xlink:href="#ArialMT-6e" x="405.761719"/>
     <use xlink:href="#ArialMT-67" x="461.376953"/>
     <use xlink:href="#ArialMT-64" x="516.992188"/>
     <use xlink:href="#ArialMT-6f" x="572.607422"/>
     <use xlink:href="#ArialMT-6d" x="628.222656"/>
    </g>
   </g>
   <g id="text_33">
    <!-- Canada -->
    <g style="fill: #262626" transform="translate(1003.068684 357.657772)scale(0.12 -0.12)">
     <use xlink:href="#ArialMT-43"/>
     <use xlink:href="#ArialMT-61" x="72.216797"/>
     <use xlink:href="#ArialMT-6e" x="127.832031"/>
     <use xlink:href="#ArialMT-61" x="183.447266"/>
     <use xlink:href="#ArialMT-64" x="239.0625"/>
     <use xlink:href="#ArialMT-61" x="294.677734"/>
    </g>
   </g>
   <g id="text_34">
    <!-- France -->
    <g style="fill: #262626" transform="translate(1051.344713 375.828174)scale(0.12 -0.12)">
     <use xlink:href="#ArialMT-46"/>
     <use xlink:href="#ArialMT-72" x="61.083984"/>
     <use xlink:href="#ArialMT-61" x="94.384766"/>
     <use xlink:href="#ArialMT-6e" x="150"/>
     <use xlink:href="#ArialMT-63" x="205.615234"/>
     <use xlink:href="#ArialMT-65" x="255.615234"/>
    </g>
   </g>
   <g id="text_35">
    <!-- Japan -->
    <g style="fill: #262626" transform="translate(1128.533991 380.434302)scale(0.12 -0.12)">
     <use xlink:href="#ArialMT-4a"/>
     <use xlink:href="#ArialMT-61" x="50"/>
     <use xlink:href="#ArialMT-70" x="105.615234"/>
     <use xlink:href="#ArialMT-61" x="161.230469"/>
     <use xlink:href="#ArialMT-6e" x="216.845703"/>
    </g>
   </g>
   <g id="text_36">
    <!-- Spain -->
    <g style="fill: #262626" transform="translate(1159.398737 377.012863)scale(0.12 -0.12)">
     <use xlink:href="#ArialMT-53"/>
     <use xlink:href="#ArialMT-70" x="66.699219"/>
     <use xlink:href="#ArialMT-61" x="122.314453"/>
     <use xlink:href="#ArialMT-69" x="177.929688"/>
     <use xlink:href="#ArialMT-6e" x="200.146484"/>
    </g>
   </g>
   <g id="text_37">
    <!-- South Korea -->
    <g style="fill: #262626" transform="translate(1184.423858 369.314493)scale(0.12 -0.12)">
     <use xlink:href="#ArialMT-53"/>
     <use xlink:href="#ArialMT-6f" x="66.699219"/>
     <use xlink:href="#ArialMT-75" x="122.314453"/>
     <use xlink:href="#ArialMT-74" x="177.929688"/>
     <use xlink:href="#ArialMT-68" x="205.712891"/>
     <use xlink:href="#ArialMT-20" x="261.328125"/>
     <use xlink:href="#ArialMT-4b" x="289.111328"/>
     <use xlink:href="#ArialMT-6f" x="355.810547"/>
     <use xlink:href="#ArialMT-72" x="411.425781"/>
     <use xlink:href="#ArialMT-65" x="444.726562"/>
     <use xlink:href="#ArialMT-61" x="500.341797"/>
    </g>
   </g>
   <g id="text_38">
    <!-- Germany -->
    <g style="fill: #262626" transform="translate(1207.539617 357.807333)scale(0.12 -0.12)">
     <use xlink:href="#ArialMT-47"/>
     <use xlink:href="#ArialMT-65" x="77.783203"/>
     <use xlink:href="#ArialMT-72" x="133.398438"/>
     <use xlink:href="#ArialMT-6d" x="166.699219"/>
     <use xlink:href="#ArialMT-61" x="250"/>
     <use xlink:href="#ArialMT-6e" x="305.615234"/>
     <use xlink:href="#ArialMT-79" x="361.230469"/>
    </g>
   </g>
   <g id="text_39">
    <!-- Mexico -->
    <g style="fill: #262626" transform="translate(1225.762923 344.906544)scale(0.12 -0.12)">
     <use xlink:href="#ArialMT-4d"/>
     <use xlink:href="#ArialMT-65" x="83.300781"/>
     <use xlink:href="#ArialMT-78" x="138.916016"/>
     <use xlink:href="#ArialMT-69" x="188.916016"/>
     <use xlink:href="#ArialMT-63" x="211.132812"/>
     <use xlink:href="#ArialMT-6f" x="261.132812"/>
    </g>
   </g>
   <g id="text_40">
    <!-- China -->
    <g style="fill: #262626" transform="translate(1239.492225 332.190675)scale(0.12 -0.12)">
     <use xlink:href="#ArialMT-43"/>
     <use xlink:href="#ArialMT-68" x="72.216797"/>
     <use xlink:href="#ArialMT-69" x="127.832031"/>
     <use xlink:href="#ArialMT-6e" x="150.048828"/>
     <use xlink:href="#ArialMT-61" x="205.664062"/>
    </g>
   </g>
   <g id="text_41">
    <!-- Australia -->
    <g style="fill: #262626" transform="translate(1251.299694 318.333999)scale(0.12 -0.12)">
     <use xlink:href="#ArialMT-41"/>
     <use xlink:href="#ArialMT-75" x="66.699219"/>
     <use xlink:href="#ArialMT-73" x="122.314453"/>
     <use xlink:href="#ArialMT-74" x="172.314453"/>
     <use xlink:href="#ArialMT-72" x="200.097656"/>
     <use xlink:href="#ArialMT-61" x="233.398438"/>
     <use xlink:href="#ArialMT-6c" x="289.013672"/>
     <use xlink:href="#ArialMT-69" x="311.230469"/>
     <use xlink:href="#ArialMT-61" x="333.447266"/>
    </g>
   </g>
   <g id="text_42">
    <!-- Egypt -->
    <g style="fill: #262626" transform="translate(1260.111373 305.31421)scale(0.12 -0.12)">
     <use xlink:href="#ArialMT-45"/>
     <use xlink:href="#ArialMT-67" x="66.699219"/>
     <use xlink:href="#ArialMT-79" x="122.314453"/>
     <use xlink:href="#ArialMT-70" x="172.314453"/>
     <use xlink:href="#ArialMT-74" x="227.929688"/>
    </g>
   </g>
   <g id="text_43">
    <!-- Turkey -->
    <g style="fill: #262626" transform="translate(1266.414511 293.936262)scale(0.12 -0.12)">
     <use xlink:href="#ArialMT-54"/>
     <use xlink:href="#ArialMT-75" x="57.333984"/>
     <use xlink:href="#ArialMT-72" x="112.949219"/>
     <use xlink:href="#ArialMT-6b" x="146.25"/>
     <use xlink:href="#ArialMT-65" x="196.25"/>
     <use xlink:href="#ArialMT-79" x="251.865234"/>
    </g>
   </g>
   <g id="text_44">
    <!-- Hong Kong -->
    <g style="fill: #262626" transform="translate(1271.497418 282.703879)scale(0.12 -0.12)">
     <use xlink:href="#ArialMT-48"/>
     <use xlink:href="#ArialMT-6f" x="72.216797"/>
     <use xlink:href="#ArialMT-6e" x="127.832031"/>
     <use xlink:href="#ArialMT-67" x="183.447266"/>
     <use xlink:href="#ArialMT-20" x="239.0625"/>
     <use xlink:href="#ArialMT-4b" x="266.845703"/>
     <use xlink:href="#ArialMT-6f" x="333.544922"/>
     <use xlink:href="#ArialMT-6e" x="389.160156"/>
     <use xlink:href="#ArialMT-67" x="444.775391"/>
    </g>
   </g>
   <g id="text_45">
    <!-- Nigeria -->
    <g style="fill: #262626" transform="translate(1275.508837 271.64531)scale(0.12 -0.12)">
     <use xlink:href="#ArialMT-4e"/>
     <use xlink:href="#ArialMT-69" x="72.216797"/>
     <use xlink:href="#ArialMT-67" x="94.433594"/>
     <use xlink:href="#ArialMT-65" x="150.048828"/>
     <use xlink:href="#ArialMT-72" x="205.664062"/>
     <use xlink:href="#ArialMT-69" x="238.964844"/>
     <use xlink:href="#ArialMT-61" x="261.181641"/>
    </g>
   </g>
   <g id="text_46">
    <!-- Italy -->
    <g style="fill: #262626" transform="translate(1278.612365 260.591739)scale(0.12 -0.12)">
     <use xlink:href="#ArialMT-49"/>
     <use xlink:href="#ArialMT-74" x="27.783203"/>
     <use xlink:href="#ArialMT-61" x="55.566406"/>
     <use xlink:href="#ArialMT-6c" x="111.181641"/>
     <use xlink:href="#ArialMT-79" x="133.398438"/>
    </g>
   </g>
   <g id="text_47">
    <!-- Brazil -->
    <g style="fill: #262626" transform="translate(1280.841771 249.745571)scale(0.12 -0.12)">
     <use xlink:href="#ArialMT-42"/>
     <use xlink:href="#ArialMT-72" x="66.699219"/>
     <use xlink:href="#ArialMT-61" x="100"/>
     <use xlink:href="#ArialMT-7a" x="155.615234"/>
     <use xlink:href="#ArialMT-69" x="205.615234"/>
     <use xlink:href="#ArialMT-6c" x="227.832031"/>
    </g>
   </g>
   <g id="text_48">
    <!-- Argentina -->
    <g style="fill: #262626" transform="translate(1282.24013 239.134622)scale(0.12 -0.12)">
     <use xlink:href="#ArialMT-41"/>
     <use xlink:href="#ArialMT-72" x="66.699219"/>
     <use xlink:href="#ArialMT-67" x="100"/>
     <use xlink:href="#ArialMT-65" x="155.615234"/>
     <use xlink:href="#ArialMT-6e" x="211.230469"/>
     <use xlink:href="#ArialMT-74" x="266.845703"/>
     <use xlink:href="#ArialMT-69" x="294.628906"/>
     <use xlink:href="#ArialMT-6e" x="316.845703"/>
     <use xlink:href="#ArialMT-61" x="372.460938"/>
    </g>
   </g>
   <g id="text_49">
    <!-- Belgium -->
    <g style="fill: #262626" transform="translate(1282.907369 228.919167)scale(0.12 -0.12)">
     <use xlink:href="#ArialMT-42"/>
     <use xlink:href="#ArialMT-65" x="66.699219"/>
     <use xlink:href="#ArialMT-6c" x="122.314453"/>
     <use xlink:href="#ArialMT-67" x="144.53125"/>
     <use xlink:href="#ArialMT-69" x="200.146484"/>
     <use xlink:href="#ArialMT-75" x="222.363281"/>
     <use xlink:href="#ArialMT-6d" x="277.978516"/>
    </g>
   </g>
  </g>
 </g>
 <defs>
  <clipPath id="pdbe6e41b1b">
   <rect x="180" y="51.84" width="676.363636" height="326.16"/>
  </clipPath>
 </defs>
</svg>
