<svg class="main-svg" xmlns="http://www.w3.org/2000/svg" xmlns:xlink="http://www.w3.org/1999/xlink" width="700" height="500" style="" viewBox="0 0 700 500"><rect x="0" y="0" width="700" height="500" style="fill: rgb(255, 255, 255); fill-opacity: 1;"/><defs id="defs-029819"><g class="clips"><clipPath id="clip029819xyplot" class="plotclip"><rect width="433" height="203"/></clipPath><clipPath class="axesclip" id="clip029819x"><rect x="80" y="0" width="433" height="500"/></clipPath><clipPath class="axesclip" id="clip029819y"><rect x="0" y="100" width="700" height="203"/></clipPath><clipPath class="axesclip" id="clip029819xy"><rect x="80" y="100" width="433" height="203"/></clipPath></g><g class="gradients"><linearGradient x1="0" x2="0" y1="1" y2="0" id="g029819-cbc5b66d"><stop offset="0%" stop-color="rgb(13, 8, 135)" stop-opacity="1"/><stop offset="11.111111%" stop-color="rgb(70, 3, 159)" stop-opacity="1"/><stop offset="22.222222%" stop-color="rgb(114, 1, 168)" stop-opacity="1"/><stop offset="33.333333%" stop-color="rgb(156, 23, 158)" stop-opacity="1"/><stop offset="44.444444%" stop-color="rgb(189, 55, 134)" stop-opacity="1"/><stop offset="55.555556%" stop-color="rgb(216, 87, 107)" stop-opacity="1"/><stop offset="66.666667%" stop-color="rgb(237, 121, 83)" stop-opacity="1"/><stop offset="77.777778%" stop-color="rgb(251, 159, 58)" stop-opacity="1"/><stop offset="88.888889%" stop-color="rgb(253, 202, 38)" stop-opacity="1"/><stop offset="100%" stop-color="rgb(240, 249, 33)" stop-opacity="1"/></linearGradient></g><g class="patterns"/></defs><g class="bglayer"/><g class="layer-below"><g class="imagelayer"/><g class="shapelayer"/></g><g class="cartesianlayer"><g class="subplot xy"><g class="layer-subplot"><g class="shapelayer"/><g class="imagelayer"/></g><g class="gridlayer"><g class="x"><path class="xgrid crisp" transform="translate(128.84,0)" d="M0,100v203" style="stroke: rgb(235, 240, 248); stroke-opacity: 1; stroke-width: 1px;"/><path class="xgrid crisp" transform="translate(166.23000000000002,0)" d="M0,100v203" style="stroke: rgb(235, 240, 248); stroke-opacity: 1; stroke-width: 1px;"/><path class="xgrid crisp" transform="translate(203.63,0)" d="M0,100v203" style="stroke: rgb(235, 240, 248); stroke-opacity: 1; stroke-width: 1px;"/><path class="xgrid crisp" transform="translate(241.03,0)" d="M0,100v203" style="stroke: rgb(235, 240, 248); stroke-opacity: 1; stroke-width: 1px;"/><path class="xgrid crisp" transform="translate(278.43,0)" d="M0,100v203" style="stroke: rgb(235, 240, 248); stroke-opacity: 1; stroke-width: 1px;"/><path class="xgrid crisp" transform="translate(315.82,0)" d="M0,100v203" style="stroke: rgb(235, 240, 248); stroke-opacity: 1; stroke-width: 1px;"/><path class="xgrid crisp" transform="translate(353.22,0)" d="M0,100v203" style="stroke: rgb(235, 240, 248); stroke-opacity: 1; stroke-width: 1px;"/><path class="xgrid crisp" transform="translate(390.62,0)" d="M0,100v203" style="stroke: rgb(235, 240, 248); stroke-opacity: 1; stroke-width: 1px;"/><path class="xgrid crisp" transform="translate(428.02,0)" d="M0,100v203" style="stroke: rgb(235, 240, 248); stroke-opacity: 1; stroke-width: 1px;"/><path class="xgrid crisp" transform="translate(465.41,0)" d="M0,100v203" style="stroke: rgb(235, 240, 248); stroke-opacity: 1; stroke-width: 1px;"/></g><g class="y"><path class="ygrid crisp" transform="translate(0,299.31)" d="M80,0h433" style="stroke: rgb(235, 240, 248); stroke-opacity: 1; stroke-width: 1px;"/><path class="ygrid crisp" transform="translate(0,234.52)" d="M80,0h433" style="stroke: rgb(235, 240, 248); stroke-opacity: 1; stroke-width: 1px;"/><path class="ygrid crisp" transform="translate(0,169.73000000000002)" d="M80,0h433" style="stroke: rgb(235, 240, 248); stroke-opacity: 1; stroke-width: 1px;"/><path class="ygrid crisp" transform="translate(0,104.94)" d="M80,0h433" style="stroke: rgb(235, 240, 248); stroke-opacity: 1; stroke-width: 1px;"/></g></g><g class="zerolinelayer"/><path class="xlines-below"/><path class="ylines-below"/><g class="overlines-below"/><g class="xaxislayer-below"/><g class="yaxislayer-below"/><g class="overaxes-below"/><g class="plot" transform="translate(80,100)" clip-path="url(#clip029819xyplot)"><g class="scatterlayer mlayer"><g class="trace scatter tracec5b66d" style="stroke-miterlimit: 2; opacity: 1;"><g class="fills"/><g class="errorbars"/><g class="lines"/><g class="points"><path class="point" transform="translate(48.84,37.34)" d="M21.75,0A21.75,21.75 0 1,1 0,-21.75A21.75,21.75 0 0,1 21.75,0Z" style="opacity: 0.7; stroke-width: 1px; fill: rgb(170, 37, 148); fill-opacity: 1; stroke: rgb(255, 255, 255); stroke-opacity: 1;"/><path class="point" transform="translate(86.23,69.73)" d="M21.5,0A21.5,21.5 0 1,1 0,-21.5A21.5,21.5 0 0,1 21.5,0Z" style="opacity: 0.7; stroke-width: 1px; fill: rgb(251, 159, 58); fill-opacity: 1; stroke: rgb(255, 255, 255); stroke-opacity: 1;"/><path class="point" transform="translate(123.63,102.13)" d="M21.25,0A21.25,21.25 0 1,1 0,-21.25A21.25,21.25 0 0,1 21.25,0Z" style="opacity: 0.7; stroke-width: 1px; fill: rgb(240, 249, 33); fill-opacity: 1; stroke: rgb(255, 255, 255); stroke-opacity: 1;"/><path class="point" transform="translate(161.03,102.13)" d="M21.25,0A21.25,21.25 0 1,1 0,-21.25A21.25,21.25 0 0,1 21.25,0Z" style="opacity: 0.7; stroke-width: 1px; fill: rgb(202, 70, 121); fill-opacity: 1; stroke: rgb(255, 255, 255); stroke-opacity: 1;"/><path class="point" transform="translate(198.43,134.52)" d="M21,0A21,21 0 1,1 0,-21A21,21 0 0,1 21,0Z" style="opacity: 0.7; stroke-width: 1px; fill: rgb(241, 132, 76); fill-opacity: 1; stroke: rgb(255, 255, 255); stroke-opacity: 1;"/><path class="point" transform="translate(235.82,134.52)" d="M21,0A21,21 0 1,1 0,-21A21,21 0 0,1 21,0Z" style="opacity: 0.7; stroke-width: 1px; fill: rgb(220, 93, 103); fill-opacity: 1; stroke: rgb(255, 255, 255); stroke-opacity: 1;"/><path class="point" transform="translate(273.22,134.52)" d="M21,0A21,21 0 1,1 0,-21A21,21 0 0,1 21,0Z" style="opacity: 0.7; stroke-width: 1px; fill: rgb(136, 13, 163); fill-opacity: 1; stroke: rgb(255, 255, 255); stroke-opacity: 1;"/><path class="point" transform="translate(310.62,134.52)" d="M21,0A21,21 0 1,1 0,-21A21,21 0 0,1 21,0Z" style="opacity: 0.7; stroke-width: 1px; fill: rgb(131, 10, 164); fill-opacity: 1; stroke: rgb(255, 255, 255); stroke-opacity: 1;"/><path class="point" transform="translate(348.02,134.52)" d="M21,0A21,21 0 1,1 0,-21A21,21 0 0,1 21,0Z" style="opacity: 0.7; stroke-width: 1px; fill: rgb(193, 60, 130); fill-opacity: 1; stroke: rgb(255, 255, 255); stroke-opacity: 1;"/><path class="point" transform="translate(385.41,166.91)" d="M20.75,0A20.75,20.75 0 1,1 0,-20.75A20.75,20.75 0 0,1 20.75,0Z" style="opacity: 0.7; stroke-width: 1px; fill: rgb(219, 92, 104); fill-opacity: 1; stroke: rgb(255, 255, 255); stroke-opacity: 1;"/></g><g class="text"/></g></g></g><g class="overplot"/><path class="xlines-above crisp" d="M0,0" style="fill: none;"/><path class="ylines-above crisp" d="M0,0" style="fill: none;"/><g class="overlines-above"/><g class="xaxislayer-above"><g class="xtick"><text text-anchor="start" x="0" y="316" transform="translate(128.84,0) rotate(30,0,310)" style="font-family: 'Open Sans', verdana, arial, sans-serif; font-size: 12px; fill: rgb(42, 63, 95); fill-opacity: 1; white-space: pre; opacity: 1;">Star Wars: Episode V - The Empire Strikes Back</text></g><g class="xtick"><text text-anchor="start" x="0" y="316" transform="translate(166.23000000000002,0) rotate(30,0,310)" style="font-family: 'Open Sans', verdana, arial, sans-serif; font-size: 12px; fill: rgb(42, 63, 95); fill-opacity: 1; white-space: pre; opacity: 1;">Star Wars: Episode IV - A New Hope</text></g><g class="xtick"><text text-anchor="start" x="0" y="316" transform="translate(203.63,0) rotate(30,0,310)" style="font-family: 'Open Sans', verdana, arial, sans-serif; font-size: 12px; fill: rgb(42, 63, 95); fill-opacity: 1; white-space: pre; opacity: 1;">The Lion King</text></g><g class="xtick"><text text-anchor="start" x="0" y="316" transform="translate(241.03,0) rotate(30,0,310)" style="font-family: 'Open Sans', verdana, arial, sans-serif; font-size: 12px; fill: rgb(42, 63, 95); fill-opacity: 1; white-space: pre; opacity: 1;">Disney's Newsies: The Broadway Musical!</text></g><g class="xtick"><text text-anchor="start" x="0" y="316" transform="translate(278.43,0) rotate(30,0,310)" style="font-family: 'Open Sans', verdana, arial, sans-serif; font-size: 12px; fill: rgb(42, 63, 95); fill-opacity: 1; white-space: pre; opacity: 1;">Presto</text></g><g class="xtick"><text text-anchor="start" x="0" y="316" transform="translate(315.82,0) rotate(30,0,310)" style="font-family: 'Open Sans', verdana, arial, sans-serif; font-size: 12px; fill: rgb(42, 63, 95); fill-opacity: 1; white-space: pre; opacity: 1;">Piper</text></g><g class="xtick"><text text-anchor="start" x="0" y="316" transform="translate(353.22,0) rotate(30,0,310)" style="font-family: 'Open Sans', verdana, arial, sans-serif; font-size: 12px; fill: rgb(42, 63, 95); fill-opacity: 1; white-space: pre; opacity: 1;">Coco</text></g><g class="xtick"><text text-anchor="start" x="0" y="316" transform="translate(390.62,0) rotate(30,0,310)" style="font-family: 'Open Sans', verdana, arial, sans-serif; font-size: 12px; fill: rgb(42, 63, 95); fill-opacity: 1; white-space: pre; opacity: 1;">WALL·E</text></g><g class="xtick"><text text-anchor="start" x="0" y="316" transform="translate(428.02,0) rotate(30,0,310)" style="font-family: 'Open Sans', verdana, arial, sans-serif; font-size: 12px; fill: rgb(42, 63, 95); fill-opacity: 1; white-space: pre; opacity: 1;">Avengers: Endgame</text></g><g class="xtick"><text text-anchor="start" x="0" y="316" transform="translate(465.41,0) rotate(30,0,310)" style="font-family: 'Open Sans', verdana, arial, sans-serif; font-size: 12px; fill: rgb(42, 63, 95); fill-opacity: 1; white-space: pre; opacity: 1;">Star Wars: Episode VI - Return of the Jedi</text></g></g><g class="yaxislayer-above"><g class="ytick"><text text-anchor="end" x="79" y="4.199999999999999" transform="translate(0,299.31)" style="font-family: 'Open Sans', verdana, arial, sans-serif; font-size: 12px; fill: rgb(42, 63, 95); fill-opacity: 1; white-space: pre; opacity: 1;">8.2</text></g><g class="ytick"><text text-anchor="end" x="79" y="4.199999999999999" style="font-family: 'Open Sans', verdana, arial, sans-serif; font-size: 12px; fill: rgb(42, 63, 95); fill-opacity: 1; white-space: pre; opacity: 1;" transform="translate(0,234.52)">8.4</text></g><g class="ytick"><text text-anchor="end" x="79" y="4.199999999999999" style="font-family: 'Open Sans', verdana, arial, sans-serif; font-size: 12px; fill: rgb(42, 63, 95); fill-opacity: 1; white-space: pre; opacity: 1;" transform="translate(0,169.73000000000002)">8.6</text></g><g class="ytick"><text text-anchor="end" x="79" y="4.199999999999999" style="font-family: 'Open Sans', verdana, arial, sans-serif; font-size: 12px; fill: rgb(42, 63, 95); fill-opacity: 1; white-space: pre; opacity: 1;" transform="translate(0,104.94)">8.8</text></g></g><g class="overaxes-above"/></g></g><g class="polarlayer"/><g class="smithlayer"/><g class="ternarylayer"/><g class="geolayer"/><g class="funnelarealayer"/><g class="pielayer"/><g class="iciclelayer"/><g class="treemaplayer"/><g class="sunburstlayer"/><g class="glimages"/><defs id="topdefs-029819"><g class="clips"/></defs><g class="layer-above"><g class="imagelayer"/><g class="shapelayer"/></g><g class="infolayer"><g class="cbc5b66d colorbar" transform="translate(80,100)"><rect class="cbbg" x="441.5" y="0" width="66.640625" height="204" style="fill: rgb(0, 0, 0); fill-opacity: 0; stroke: rgb(68, 68, 68); stroke-opacity: 1; stroke-width: 0;"/><g class="cbfills" transform="translate(0,10)"><rect class="cbfill gradient_filled" x="452" y="0" width="30" height="183" style="fill: url('#g029819-cbc5b66d');"/></g><g class="cblines" transform="translate(0,10)"/><g class="cbaxis crisp" transform="translate(0,-100)"><g class="ycbc5b66dtick"><text text-anchor="start" x="485.4" y="4.199999999999999" transform="translate(0,276.99)" style="font-family: 'Open Sans', verdana, arial, sans-serif; font-size: 12px; fill: rgb(42, 63, 95); fill-opacity: 1; white-space: pre; opacity: 1;">8</text></g><g class="ycbc5b66dtick"><text text-anchor="start" x="485.4" y="4.199999999999999" style="font-family: 'Open Sans', verdana, arial, sans-serif; font-size: 12px; fill: rgb(42, 63, 95); fill-opacity: 1; white-space: pre; opacity: 1;" transform="translate(0,242.84000000000003)">9</text></g><g class="ycbc5b66dtick"><text text-anchor="start" x="485.4" y="4.199999999999999" style="font-family: 'Open Sans', verdana, arial, sans-serif; font-size: 12px; fill: rgb(42, 63, 95); fill-opacity: 1; white-space: pre; opacity: 1;" transform="translate(0,208.68)">10</text></g><g class="ycbc5b66dtick"><text text-anchor="start" x="485.4" y="4.199999999999999" style="font-family: 'Open Sans', verdana, arial, sans-serif; font-size: 12px; fill: rgb(42, 63, 95); fill-opacity: 1; white-space: pre; opacity: 1;" transform="translate(0,174.53000000000003)">11</text></g><g class="ycbc5b66dtick"><text text-anchor="start" x="485.4" y="4.199999999999999" style="font-family: 'Open Sans', verdana, arial, sans-serif; font-size: 12px; fill: rgb(42, 63, 95); fill-opacity: 1; white-space: pre; opacity: 1;" transform="translate(0,140.37)">12</text></g></g><g class="cbtitleunshift" transform="translate(-80,-100)"><g class="cbtitle"/></g><rect class="cboutline" x="452" y="10" width="30" height="183" style="stroke: rgb(68, 68, 68); stroke-opacity: 1; fill: none; stroke-width: 1;"/></g><g class="g-gtitle"><text class="gtitle" x="350" y="50" text-anchor="middle" dy="0em" style="font-family: 'Open Sans', verdana, arial, sans-serif; font-size: 17px; fill: rgb(42, 63, 95); opacity: 1; font-weight: normal; white-space: pre;">Top 10 Movies with the Highest IMDB Ratings</text></g><g class="g-xtitle"><text class="xtitle" x="296.5" y="487.7658203125" text-anchor="middle" style="font-family: 'Open Sans', verdana, arial, sans-serif; font-size: 14px; fill: rgb(42, 63, 95); opacity: 1; font-weight: normal; white-space: pre;">name</text></g><g class="g-ytitle"><text class="ytitle" transform="rotate(-90,34.575,201.5)" x="34.575" y="201.5" text-anchor="middle" style="font-family: 'Open Sans', verdana, arial, sans-serif; font-size: 14px; fill: rgb(42, 63, 95); opacity: 1; font-weight: normal; white-space: pre;">IMDB Rating</text></g></g></svg>